<?xml version="1.0" encoding="UTF-8"?>
<svg width="93px" height="112px" viewBox="0 0 93 112" version="1.1" xmlns="http://www.w3.org/2000/svg" xmlns:xlink="http://www.w3.org/1999/xlink">
    <!-- Generator: Sketch 54.1 (76490) - https://sketchapp.com -->
    <title>Group 4 Copy 2</title>
    <desc>Created with Sketch.</desc>
    <g id="Page-1" stroke="none" stroke-width="1" fill="none" fill-rule="evenodd" opacity="0.1617141">
        <g id="Wireframe" transform="translate(-466.000000, -693.000000)" fill="#D4D4D4">
            <g id="Group-4-Copy-2" transform="translate(466.000000, 693.000000)">
                <path d="M31.9106177,15.599 C31.6526177,15.336 31.5566177,15.207 31.1986177,15.072 C30.9446177,15.401 31.1666177,15.795 31.5256177,15.928 L31.9106177,15.599 Z" id="Fill-19"></path>
                <path d="M28.991911,10.2457778 C28.7475556,9.79209298 28.2143456,10.0563586 28.0917775,10.3212 C28.035568,10.4726202 27.8700621,10.7737333 28.1979511,11 C28.5968828,10.9625768 29.0676378,10.6620394 28.991911,10.2457778" id="Fill-21"></path>
                <path d="M27.1978031,12.4722646 C26.998098,12.4534134 27.1312347,12.6628068 27,12.7190703 C27.115204,13.0050285 27.2627411,13.1958607 27.5048325,13.3289791 C27.8844079,13.2709755 28.2639832,13.4615176 28.6242674,13.3101279 C28.6294298,13.2524143 28.577262,13.1755594 28.6405698,13.138437 C28.7394713,13.3472503 28.859566,13.0815934 28.9948764,13.2147119 C29.0804642,13.1958607 29.1815394,13.0815934 29.245119,13.2147119 C29.2502814,13.9948615 28.8337538,14.7172975 28.7766953,15.5365996 C28.4783604,15.8976726 28.6712728,16.4684289 28.4128789,16.8498032 C28.326476,17.3628458 28.1047626,17.9147509 28.2542018,18.4480949 C28.528898,18.9045839 28.9973217,18.9234351 29.4059698,19 C29.7730466,18.8854427 29.4956333,18.5055185 29.6841983,18.2961252 C29.3682025,16.9829217 29.8195086,15.9165238 29.9298218,14.75616 C30.1664791,14.1091288 30.214843,13.3289791 30.6126228,12.8536389 C31.697279,12.5859519 33.0022901,12.6048031 33.4204479,12.6439556 C33.5978729,12.4722646 33.9005551,12.7190703 34,12.4345622 C33.9440283,12.3391462 33.9771766,12.2437301 33.8445833,12.2060277 C33.6372705,12.320295 33.4283274,11.9200695 33.2150371,11.8435046 C33.14548,11.7683898 32.1499437,11.8638059 31.3011295,11.7292374 C31.1650041,11.6729738 30.9435625,11.5587065 30.9212825,11.3681644 C31.0503435,10.5500223 31.361992,9.92184235 31.5309941,9.12284151 C31.6176687,8.85573451 31.8206342,8.72261604 31.8130264,8.43781792 C32.0545744,8.22871461 31.9947987,7.69537067 32.3485619,7.5999546 C32.6610255,7.14346556 33.3965377,7.16202674 33.5701588,6.55385804 C33.5554866,6.23019744 33.3552381,5.96309045 33.2712805,5.73455591 C32.9666964,5.39233413 32.4384971,4.91699388 31.9244265,5.01240996 C31.8545977,5.10753601 31.705702,5.16379959 31.8225362,5.37348293 C31.6065287,5.62028864 31.6744556,6.0205141 31.4589916,6.26789984 C31.1402787,8.20986341 30.2860304,9.80757508 29.7953266,11.692115 C29.4757986,12.8719101 28.0243372,12.1674552 27.1978031,12.4722646" id="Fill-23"></path>
                <path d="M41.4639145,8 C41.1681898,8 40.9917452,8.29885642 41.0002973,8.63278272 C41.1753916,9.06632783 41.1546864,9.69961881 41.600299,10 C41.7866461,9.89936468 41.9014251,9.73468869 42,9.49936468 L41.9936984,9.46683609 C41.7398342,8.93265565 42.3110286,8.09961881 41.4639145,8" id="Fill-25"></path>
                <path d="M41.1075906,7.69799004 C41.2163953,7.9116061 41.4853607,8.07405177 41.74214,7.96521317 C42.0328663,7.75078488 42.1129466,7.37797206 41.797848,7.00678369 C41.3243297,6.95317662 40.7602858,7.22039975 41.1075906,7.69799004" id="Fill-27"></path>
                <path d="M36.1637208,18.515815 C36.4457185,18.5905454 36.6766648,18.7581916 36.9427259,18.7581916 C37.2536256,18.7212526 37.4756583,19.0934841 37.7798052,18.9445915 C37.8019544,17.975369 38.0183147,17.0052941 38.2416979,16.0727265 C38.4334779,15.6448024 38.6998091,15.2344953 38.7146653,14.7304201 C38.9275141,14.3203972 39.0263753,13.8725829 39.2208565,13.46256 C39.1017368,13.4818819 39.0050364,13.4440905 38.9310256,13.3506064 C38.8775432,13.1829602 39.0333983,13.1644907 39.049605,12.9962762 C38.9310256,12.9411518 38.9110372,12.8476678 38.8734916,12.7544678 C39.1095701,11.877877 39.617382,11.3559005 40.0212005,10.516817 C40.1443719,10.3491707 40.3031981,10.1806721 40.5217193,10.1255477 C40.6440804,10.1994257 40.671902,10.3304171 40.7326774,10.4423707 C40.6173392,11.2254774 40.4363637,12.0270537 40.3215658,12.8101605 C40.0730621,13.6307745 39.9250403,14.5067971 39.7594613,15.3831038 C39.5801064,16.2781641 39.3524014,17.1922623 39.5379688,18.2171774 C39.6735654,18.515815 40.0125569,18.6092991 40.2567388,18.7581916 C40.6897294,18.8695769 40.9144632,18.6840295 41.3015347,19 C41.3866202,18.9815305 41.5214065,18.9445915 41.4433439,18.8329221 L41.2737131,18.8695769 C40.7577978,18.3672065 41.2850579,17.7699314 41.1327143,17.2294854 C41.3077473,16.3156714 41.4025569,15.4393647 41.6172965,14.5437361 L41.8034042,14.3397191 C41.7177784,13.779383 42.0446148,13.4068674 41.9284664,12.8664214 L42.143206,11.9713611 L42.1332118,11.430631 C41.9687131,10.8333558 41.8603979,10.0874721 41.1016513,9.7706492 C40.9668651,9.64022612 40.7650909,9.7706492 40.6276035,9.54674204 C39.916937,9.2108813 39.6481748,9.7706492 39.2994593,10.1255477 C39.1160528,10.1806721 39.0466338,10.516817 38.8151472,10.3491707 C38.8086645,9.65869562 38.9928814,9.11768137 39.1084896,8.50335741 C38.9450714,8.07429674 39.1163229,7.55203613 39.193305,7.08632061 C39.4307341,6.37709184 39.7003066,5.57608387 40.0117465,4.88504045 L40.0157982,4.73671617 C40.3337209,4.56850165 40.1146595,4.04709348 40.4493291,3.9536094 C40.7694127,2.89033454 41.38608,2.21946551 41.8947023,1.28661373 C42.2382856,1.15619065 42.6520983,1.51052088 42.9400385,1.28661373 C43.0367388,1.15619065 42.9967621,0.969506633 42.9565153,0.783675056 C42.5221741,0.168214515 41.7515425,0.131275517 41.1564842,0 C39.8847936,1.9952742 39.2746089,4.34459449 38.5820399,6.63850629 C37.793851,9.22963495 36.988645,11.821616 36.6974635,14.5815275 C36.698544,14.9173882 36.8676345,15.2896197 36.5416085,15.4200428 C36.6245331,16.2972019 36.1048362,16.9305637 36.1877608,17.8071545 C36.2728463,18.1236933 35.7445059,18.2171774 36.1637208,18.515815" id="Fill-29"></path>
                <path d="M46,19.7277731 C46.0411581,20.1711644 46.1703094,20.5818189 46.3843315,20.9298884 C46.5183083,20.9602181 46.592109,21.0877954 46.7337496,20.8981144 L47,20.5187524 L46.5222821,19.3180814 L46.3587851,19.0653339 C45.984956,18.780331 46.1754187,19.5067996 46,19.7277731" id="Fill-31"></path>
                <path d="M47.2236488,10.6845469 C46.3273452,10.9661637 45.8739937,11.8319491 45.456056,12.6033842 C45.2820792,12.4903933 45.1269335,12.4531121 45.0088878,12.5847435 C44.958859,12.7731572 45.1336789,12.9804984 45.1935449,13.1677649 C44.8565528,14.2222508 45.3582467,15.4826438 45.9611226,16.5368428 C46.3627588,16.762251 46.4437044,17.2142144 46.8349414,17.478051 C47.3405702,17.515619 47.9313605,18.3438363 48.4077589,17.8353774 L49.3386331,17.8726587 C49.3653339,17.9108003 49.4431878,17.9294409 49.4192976,17.9856495 C49.5851236,17.9856495 49.6593237,17.9856495 49.7366155,17.8353774 C49.8732112,17.8726587 50.0831638,17.7410272 50.167201,17.9480815 C50.2458981,17.8912993 50.4631583,17.8726587 50.4446082,17.7040327 C50.4814272,17.7040327 50.5334235,17.6853921 50.5376394,17.7040327 C50.6480964,17.7040327 50.5806418,17.4026281 50.8077391,17.515619 C51.4235438,18.0424317 51.3740771,16.9882327 51.9912871,17.195287 C51.9578408,17.0450149 51.9926924,16.9512382 52,16.8196068 C51.9050014,16.7252565 51.7962308,16.6498337 51.7608171,16.5738373 C51.649798,16.5738373 51.6469873,16.7252565 51.5845918,16.8563144 C51.4662651,16.7441839 51.61326,16.5738373 51.5770031,16.5738373 C50.461753,17.5336861 48.8377823,17.6099692 47.2599057,17.2328551 C46.6708017,16.9882327 46.3599482,16.4238519 46.0482516,15.9351808 C45.7812436,15.1442447 45.5732584,14.2976736 46.0611804,13.7519334 L46.5850781,14.0335503 C47.0530447,14.1465411 47.6415866,14.3908767 48.003031,14.1092599 C48.9597628,14.0149096 49.610138,13.2064801 50.4305552,12.8293659 C50.3720945,12.3220541 50.7683906,11.9449399 50.4266203,11.3991998 C49.775964,10.5523419 48.8636399,9.93175245 47.8849854,10.0060282 C47.5693539,10.081451 47.3816051,10.401783 47.2236488,10.6845469 L47.2236488,10.6845469 Z M51.7377701,16.7995322 C51.8715551,16.8196068 51.8083164,16.9512382 51.7506989,17.0269479 C51.534844,16.9693053 51.8038194,16.9325976 51.7377701,16.7995322 L51.7377701,16.7995322 Z M51.5247258,17.0068733 L51.6346207,17.0822962 C51.6427714,17.1198642 51.4297272,17.1580058 51.4156741,17.1766464 L51.5247258,17.0068733 Z M48.3467687,11.1651883 C48.7478428,10.9767746 49.420984,10.9119625 49.8352679,11.3831402 L49.8538179,11.3831402 C49.5994577,12.7969599 48.2453057,12.7840548 47.3113398,13.1410945 C47.044894,13.272726 46.7531526,13.1264688 46.4021074,13.1264688 C46.2691655,12.9383419 46.4276839,12.8273584 46.3537649,12.6581589 L46.4254355,12.7341553 L47.2076283,12.1844003 C47.2503496,11.5457438 48.1323191,11.6922878 48.3467687,11.1651883 L48.3467687,11.1651883 Z" id="Fill-33"></path>
                <path d="M48.5462404,9 C47.7582404,9 48.3902404,9.72695773 48.4802404,10 L48.5452404,10 C48.9742404,9.90783091 48.9132404,9.31670132 48.5462404,9" id="Fill-35"></path>
                <path d="M49.2068757,10.0162973 C48.8878757,10.2214177 49.0808757,10.7519876 49.6268757,10.9976334 C50.3008757,11.0381587 49.6638757,10.5481141 49.9028757,10.3024684 C49.7248757,10.180269 49.4408757,9.93462321 49.2068757,10.0162973" id="Fill-37"></path>
                <path d="M23.0721045,72.9993575 C23.361101,73.3601028 23.3510063,73.8393832 23.8502608,74 C24.2073244,73.6408609 23.8139199,72.9257951 23.8121894,72.4063604 C23.5707821,72.2441375 23.4978119,72 23.2281395,72 C23.025092,72.2399615 22.9203957,72.6007067 23.0721045,72.9993575" id="Fill-39"></path>
                <path d="M12.109714,74.9145285 C9.21230806,77.3923655 6.50350336,81.0918807 8.54469028,85.3150523 C9.2343882,86.7108155 10.2525283,88.3518674 11.9950199,88.9097241 C12.6233841,88.9800869 13.5743638,89.1191306 13.8380988,88.4914717 C14.061967,88.3168261 14.2465816,88.5963151 14.3735424,88.8057217 C13.8644724,92.7488436 13.1698677,96.4147192 12.2906485,100.253278 L9.1080407,103.429137 C8.33400888,103.080126 7.25913506,102.592071 7.19473463,101.719965 L7,101.858448 C7.0098134,102.208019 7.29194861,102.416865 7.47502983,102.696074 C7.18185454,102.592071 7.23092154,102.941082 7.24349495,103.150489 L8.91453274,104.650815 C9.41716275,104.825461 9.29602862,104.337406 9.53615021,104.232563 C9.93573954,104.301243 10.4524763,104.232563 10.7983986,104.546252 C10.248235,104.79126 9.70083131,104.895823 9.10742736,104.964504 L9.14238759,105.104669 C9.68703122,105.45368 10.1939546,105.803532 10.8480789,105.976776 C12.3798891,106.151422 13.5090433,105.314076 14.1916879,104.371606 L15.0184667,101.858448 C16.0964072,100.358121 16.9587596,98.7529518 17.3568156,96.9725759 C17.4031226,97.0076172 17.51751,97.0076172 17.5938705,97.0076172 C17.7018179,94.9830738 18.7874251,93.2026979 19.0367468,91.2841193 C19.6516175,89.6085868 20.0579536,87.8632522 20.8141986,86.2922828 L20.6354108,86.1877197 C20.9810264,85.7338654 21.1978412,85.0711652 21.3398288,84.4079044 C21.0647469,84.6871131 21.0883604,85.2458108 20.7071712,85.2458108 L20.4170626,85.0008024 L20.5348234,84.861198 L20.6844777,85.0008024 C20.8356654,84.6871131 20.7142246,84.1979372 21.1846544,84.0933741 C21.1374274,83.2910696 21.724698,82.7323719 21.8099519,81.9993089 C22.5183566,81.1616829 21.9964065,80.2890155 23.0028932,79.7305981 C23.3948158,80.079609 24.2381547,79.6257547 24.6055438,79.4163482 C23.7361381,78.6832852 23.9992598,79.5915545 23.7091512,79.346546 C22.7615449,79.0673373 23.8591122,78.7183265 23.6698976,78.2650328 C24.6806777,77.7251172 25.0210799,76.3725249 24.9989998,75.2736313 C24.4788897,76.1552692 23.9891397,77.0590531 23.0856937,77.6012114 C22.9559729,77.0781156 23.1277073,76.6943438 23.227068,76.1706873 C23.5745236,76.0316436 23.9581662,75.5777893 23.9860731,75.2282178 C23.6352441,75.5074265 23.0393868,75.2629787 22.9575062,75.856998 L22.5729436,75.2282178 C22.1948211,75.0888938 22.078287,75.5421874 21.8369388,75.6475915 C21.2015212,75.0888938 21.5922171,74.3561111 20.8813591,73.7974134 L18.4641963,73.1338723 C15.8225521,72.6449767 13.6810845,73.553246 12.109714,74.9145285 M7.70993806,102.870719 L9.0080667,103.638543 C8.96053305,103.603782 8.25703503,103.847389 7.70993806,102.870719 M11.3077753,102.137656 C11.1480009,102.416865 11.0188934,102.975282 10.5196368,103.115448 C10.5214768,102.661874 11.0412802,102.453028 11.3077753,102.137656 M10.1488743,103.778708 C10.1096207,103.464178 10.898986,103.569302 11.1826545,103.325134 C11.2642284,103.4995 11.1621077,103.708345 11.0069333,103.847389 C10.6165441,103.813189 10.4803832,103.883552 10.1488743,103.778708 M11.7404849,105.418359 C11.1722278,105.593284 10.7557717,105.45368 10.4196628,105.174471 C11.3215754,104.964504 11.7426316,104.197241 12.5718638,103.847389 C12.9515196,103.53398 13.3498823,103.289532 13.8028319,103.115448 C13.5866305,104.092398 12.761385,105.070469 11.7404849,105.418359 M14.2701951,100.846737 C13.6406042,101.229948 14.311902,102.2425 13.5114967,102.55703 C13.1070006,103.080126 12.4544096,103.220291 11.9594463,103.53398 C12.6782778,102.277821 12.7000513,100.67153 13.4406562,99.3455695 C13.5436969,98.9965586 13.9276461,98.5435453 13.9205927,98.0540891 L14.0828205,98.089691 C13.5596437,98.7529518 14.3106753,99.6250585 13.8267521,100.288319 C13.9304061,100.707132 14.5311701,100.358121 14.2701951,100.846737 M22.5168233,76.6943438 L22.5257167,76.7291047 C22.2625949,76.590061 21.9424328,76.3800938 21.9323127,76.0316436 C22.2972485,75.9612808 22.7357847,76.3450526 22.5168233,76.6943438 M21.6492575,77.8111785 C21.8206853,77.4276871 22.0387268,77.0781156 21.871899,76.5544591 C22.1261273,76.6587419 22.331902,76.8692697 22.5487168,76.9735525 C23.0409201,77.8815414 21.879259,78.1254285 22.3542889,78.9624939 C21.6299374,80.812672 20.4201293,82.243196 19.8656723,84.1631763 C19.0910271,85.3503739 19.3943225,86.5714915 18.5006899,87.5837631 C18.2835684,88.5607132 18.0391535,89.5729849 17.7008979,90.5154544 L18.1130606,90.7946631 C18.5059032,90.3764107 18.6761044,89.6778283 18.5844104,89.1547325 L20.1585409,85.5709936 C19.8500322,86.3797457 19.7985119,87.2395179 19.2833084,87.9678152 C19.3513889,89.0145675 18.7454115,89.957037 18.6573976,90.830265 C18.4595963,92.1904262 17.7291114,93.5522694 17.5533902,94.8437498 C16.6934912,95.9953455 16.5916772,97.7406802 15.6949779,98.8919955 C15.3987359,97.391389 16.117874,96.1349498 16.059607,94.6688239 C16.5101033,91.5622067 17.966473,88.6655567 18.4001025,85.4894176 C19.2400681,82.8714156 19.9036992,80.0098068 21.6492575,77.8111785 M18.1495542,82.9700918 C18.1495542,82.9608409 18.1501675,82.9510293 18.1501675,82.9417784 L18.1875811,82.9417784 C18.1731677,82.9493474 18.1633543,82.9622425 18.1495542,82.9700918 M20.2211013,76.5196982 L20.2821284,76.7647066 L19.8055652,76.6943438 C19.7365648,76.4154154 20.0852471,76.590061 20.2211013,76.5196982 M17.712858,74.8789266 L17.6340441,75.0193719 C18.0676737,75.2282178 18.3574756,75.4729459 18.6055706,75.856998 L18.6141573,75.8914786 C17.2200414,78.8926917 16.0740204,81.9639874 15.0972806,85.1056458 C14.113794,85.908511 13.264015,87.4093979 11.4755231,86.8164999 C10.2148081,86.0481153 9.7449916,84.6173109 9.65943103,83.5004762 C9.32638882,82.3135589 9.99615327,81.4759328 9.99553994,80.393018 C10.7941053,78.9980958 11.3783091,77.8111785 12.5801438,76.6587419 C13.2351882,76.0658439 14.6323708,76.3108523 14.8044119,75.1584156 C14.7019846,75.0535722 14.5529436,74.9145285 14.5391435,74.7045613 C15.3999626,74.6353198 16.1500742,74.4253526 16.8440655,74.146144 C17.5098433,73.9022568 17.5509369,74.5304764 17.712858,74.8789266" id="Fill-41"></path>
                <path d="M23.4225,71.4375 C23.4225,71.4435 23.4245,71.4505 23.4245,71.4565 C23.4805,71.4905 23.5175,71.5315 23.5775,71.5625 L23.4225,71.4375 Z" id="Fill-43"></path>
                <path d="M25.4245287,75.294 C25.4295287,75.427 25.4205287,75.57 25.4245287,75.706 C25.4755287,75.611 25.5265287,75.515 25.5765287,75.421 L25.4245287,75.294 Z" id="Fill-45"></path>
                <path d="M17.3030545,110 C16.9643365,110.120282 16.9423364,110.544923 17.0772425,110.970051 C17.2457713,111.575359 17.635131,111.455077 18,112 L17.8837732,110.604334 C17.7343388,110.363769 17.4690927,110.059411 17.3030545,110" id="Fill-47"></path>
                <path d="M31.3840478,89.8855888 C33.4100642,90.4537131 34.2733284,88.7873571 35.1810253,87.4996492 C35.2237269,87.1967307 35.0497468,86.5528768 35.3596218,86.3262962 C35.7367228,85.0759969 35.6178509,83.5239957 35.3916479,81.9716903 C35.8330899,81.5167042 36.1501779,80.9872051 35.9262832,80.115554 C35.4730117,79.5097169 34.9802125,79.0559474 34.375466,78.7530289 C33.3676512,78.4114852 32.0753516,77.5787634 31.1809268,78.2606342 C29.5784638,78.8278461 29.091435,80.57054 28.4188853,82.1228454 C27.85886,83.5239957 27.8276994,85.3789154 28.5247736,87.1203928 C28.8718682,88.5601682 30.3831576,89.2417349 31.3840478,89.8855888 M31.6691096,81.2484571 C31.9824468,81.2484571 32.8601372,81.1392726 33.2138678,81.1325816 C33.2173301,82.6316634 33.413238,84.4157197 33.0531599,85.7344493 C32.934865,85.6918704 32.8139734,85.6739264 32.6645179,85.4941826 C32.7112588,86.0026964 32.038709,85.925142 32.2828004,86.6042756 C32.337043,86.751477 32.4348527,86.8548829 32.5361246,86.9397366 C32.3904199,87.1301251 32.2173055,87.3080441 32.0112992,87.4546372 C31.6647818,87.3408907 31.2475759,87.0209406 30.9033666,86.7563431 C30.9385665,84.7490517 30.2305283,82.5735736 31.6691096,81.2484571" id="Fill-49"></path>
                <path d="M33.4480204,89.117291 C33.1795772,89.117291 32.9545269,88.9449538 33.0078921,89.2307654 C33.1254034,89.6784497 33.3121817,90.0368588 33.84233,89.9969629 C34.0725012,89.7932322 33.9528338,89.2958415 33.9660403,89.2958415 L34,89.2958415 C33.7935467,88.7585549 33.6825039,89.117291 33.4480204,89.117291" id="Fill-51"></path>
                <path d="M26.3419081,79.7094551 C26.4776358,79.7561668 26.6198106,80.0421798 26.8223841,79.9947024 C27.0419237,79.8553333 27.0514246,79.4877663 26.8868548,79.2476992 C25.9683177,78.5527679 25.7226506,79.5210771 26.3419081,79.7094551" id="Fill-53"></path>
                <path d="M26.4235,79.4375 C26.4335,79.4495 26.4375,79.4665 26.4465,79.4795 C26.4905,79.5095 26.5305,79.5295 26.5765,79.5625 L26.4235,79.4375 Z" id="Fill-55"></path>
                <path d="M50.5166522,80.9977284 C50.9138585,81.040263 51.0335517,80.4761575 50.9922997,80.0860251 C50.6657217,79.4340614 49.8606836,79.3047146 49.3715979,79 C48.805321,79.0868123 49.0334568,79.8255883 49.1131481,80.2164179 C49.3912863,80.8234066 50.1475722,80.9102189 50.5166522,80.9977284" id="Fill-57"></path>
                <path d="M51.9419015,75.5435212 C52.2411641,74.321313 51.3332172,73.3508209 50.3889873,72.3809061 C49.3736427,71.7334302 48.2758629,70.4035499 47.1801151,71.3021645 C44.7459583,72.9914328 42.5524307,75.2560107 40.2160931,77.0520851 C38.9392202,77.951277 37.3967555,79.4243351 38.241715,81.5451578 C39.1839131,82.1920564 38.8277587,83.1625485 39.2767977,84.0247913 C40.2674698,85.3546715 41.6714784,85.9663529 43.028174,86.6845517 L43.084195,86.6126741 C43.9906905,87.2595727 43.3483355,88.0863096 43.4391883,88.8047971 C42.7254283,90.7457814 41.3870194,92.0032067 40.2012896,93.6205974 C39.3574911,94.195907 39.1139594,95.3459488 38.3418562,95.9209698 C38.5906128,96.8556674 39.4007405,96.6033741 39.997524,97 C40.0430955,96.568157 40.2422168,96.1726857 40.3934446,95.8851753 C40.7690466,95.6334593 40.9606211,95.2027709 41.4781624,95.0950988 C42.1756676,94.195907 43.0667791,93.189909 44.1030228,92.5069273 C44.152658,91.9324837 44.7032895,91.9677009 44.8417456,91.4645575 C45.2547917,91.2131302 45.3151667,90.5301485 45.5102243,90.2784325 L45.4855519,90.1707604 C45.5935302,89.0568017 45.5253181,88.1223927 45.3984726,86.936845 C45.2263458,85.3910433 43.9027404,84.0247913 42.5103424,83.3063038 C41.7202429,82.6946224 40.5635395,82.6946224 40.3742871,81.5451578 C40.6839992,81.0065087 40.9298531,80.1791944 41.6154574,79.8564668 C41.571047,79.0297299 42.6517011,79.1734851 42.9820219,78.5618037 C43.9436677,78.3467482 44.5230353,77.5558058 45.4164689,77.1964177 C46.2431418,76.2265029 48.0802248,76.5140133 49.0113928,75.6866991 C49.6459106,74.8241677 51.1152287,76.5140133 51.9419015,75.5435212" id="Fill-59"></path>
                <path d="M46.7540178,99 C47.0013967,99 47.1913837,98.8000402 47.7395753,99 C48.5574099,98.4001205 47.2369014,97.1999598 46.6877203,97 C46.665951,97.7998394 45.1084535,98.4001205 46.7540178,99" id="Fill-61"></path>
                <path d="M50.5909313,103.935721 C51.1182239,104.079546 51.2713546,103.970955 51.568809,103.719982 C51.5929576,101.454295 52.5481071,99.5484611 52.8094806,97.3913653 C53.1083555,96.6713707 53.1543799,95.7728937 53.3680243,94.9824303 C53.9845248,93.93955 53.5157572,92.3210783 54.105268,91.3137212 C55.0010403,91.2062852 56.0729556,91.0985604 56.549678,90.379721 C56.8190063,90.6309827 56.7840618,90.1634049 57.0482763,90.2353177 C59.2048915,88.3294836 60.7177324,85.5973741 60.9464342,82.5051228 C61.2995725,81.3897521 59.8069027,80.88694 59.3835914,80.0964766 C58.3977589,79.483918 57.4548257,79.6996564 56.5638831,78.8730922 C56.2490985,77.9382255 57.0559471,77.4351246 57.6437532,76.8950564 C58.2719019,76.859822 58.8920956,76.7873316 59.3858642,76.4641571 C59.5907014,75.6370153 58.8338548,75.0969471 58.3861107,74.5216446 C57.464201,73.8755844 56.3323403,73.8755844 55.5712322,74.2706717 C55.2618455,76.2120291 54.8146696,78.0101384 54.1620883,79.8440597 L53.4921767,80.1672341 C52.9074957,80.2397246 52.7958437,80.8505503 52.7393075,81.3897521 C53.0535239,82.3254852 53.4259811,81.1382016 53.8186095,81.785417 C53.750141,82.3494561 53.6705925,82.9111848 53.585362,83.4714694 C53.3830817,83.1875726 53.084775,83.0293066 52.7495352,82.9184049 C52.497253,83.0446134 52.8955634,83.7103124 52.5296405,83.7409259 C52.6165756,83.0942881 52.1000789,83.242157 51.9432549,82.9184049 C52.1767864,82.8334958 52.2949726,82.6527029 52.2080375,82.3006478 C51.5676726,82.346568 51.2730592,81.9381956 50.5429181,82.0950176 C51.2940827,83.0619418 52.2043442,83.8203476 53.4859265,84.0863384 C53.2648955,85.4627902 53.0143179,86.8351988 52.7782294,88.22147 L52.2909952,88.2581484 C51.3767563,88.4372084 50.9920827,89.4087535 51.138111,90.379721 C51.4619868,90.8828219 52.0466678,90.8106203 52.5171401,91.1704732 C51.8824571,94.9824303 51.1463499,98.9728698 50,102.712336 C50.3091025,103.14468 49.8190273,103.647492 50.5909313,103.935721 M55.0084269,85.0573059 C55.5056047,83.7992648 55.4240675,82.3254852 55.7632848,80.9949536 C55.9556216,80.7425367 56.1297759,80.4193622 56.5735426,80.3468718 C57.4536893,80.1672341 57.975868,80.9224632 58.8250476,80.9224632 C60.6109102,82.9002101 58.6972019,84.6264066 58.3744625,86.3526031 C57.5124983,87.7186579 56.6147373,89.0847126 55.1408182,89.76774 C54.9632548,89.76774 54.6959152,89.8399416 54.5419321,89.624492 C54.5351137,88.0063091 54.9999039,86.6038647 55.0084269,85.0573059" id="Fill-63"></path>
                <path d="M62,75.279591 C62.0307734,75.4238255 62.001634,75.5669062 62.1260893,75.675659 C62.745098,76.0345145 63.4319172,75.9990328 64,75.9990328 L63.9667756,75.9990328 L63.9204793,75.8187397 C63.3374183,75.3165151 62.5313181,74.5970732 62,75.279591" id="Fill-65"></path>
                <path d="M67,95.7285489 C67.0816998,96.1708801 67.3408649,96.581743 67.7691157,96.9294158 C68.0390543,96.9613915 68.184498,97.0872643 68.4685022,96.8976938 L69,96.5185528 L68.0459375,95.317686 L67.716744,95.0649253 C66.9712704,94.7809503 67.3507407,95.5072565 67,95.7285489" id="Fill-67"></path>
                <path d="M73.1715253,78.015912 C72.815584,78.2205133 73.0330382,78.7525423 73.6441494,78.9975384 C74.3955155,79.0389184 73.6806864,78.5482694 73.9476424,78.3029449 C73.7508139,78.1801185 73.4308203,77.9354508 73.1715253,78.015912" id="Fill-69"></path>
                <path d="M64.0179603,80.8470288 C63.9172251,81.1998941 64.2677242,81.5881877 64.3874213,81.9399194 C63.7136809,83.9162488 64.7168845,86.2814387 65.9230399,88.2566344 C66.7253658,88.6800729 66.8880234,89.5272331 67.669906,90.0212446 C68.681998,90.0918177 69.8620808,91.6441419 70.8161019,90.6918305 L72.6776284,90.7624036 C72.7309588,90.8329767 72.8870983,90.8681215 72.8385084,90.973556 C73.1709344,90.973556 73.3178892,90.973556 73.4716584,90.6918305 C73.7477913,90.7624036 74.168805,90.5146893 74.335018,90.9041166 C74.4929352,90.7981153 74.927874,90.7624036 74.8887651,90.4446831 C74.9631313,90.4446831 75.0653479,90.4089714 75.07394,90.4446831 C75.2958536,90.4446831 75.1619351,89.8806653 75.6179098,90.0918177 C76.8477676,91.0795573 76.7482175,89.1043616 77.983112,89.4923717 C77.9161528,89.2100795 77.985186,89.0335051 78,88.7860742 C77.8112697,88.6094998 77.593504,88.4689205 77.5223968,88.3272075 C77.3016683,88.3272075 77.2948539,88.6094998 77.1686387,88.8572141 C76.9336887,88.6454949 77.2278947,88.3272075 77.154121,88.3272075 C74.9240224,90.1266791 71.674721,90.2683921 68.5202292,89.562378 C67.3416279,89.1043616 66.7215141,88.0449152 66.0975487,87.1271819 C65.562171,85.6462811 65.1485643,84.0579618 66.1227325,83.0345106 L67.171267,83.5639503 C68.1057337,83.7756695 69.284335,84.2345362 70.0078505,83.7045296 C71.9206333,83.5279552 73.2210057,82.0110593 74.8615073,81.3058955 C74.7450693,80.3518836 75.537618,79.6464363 74.8520264,78.622985 C73.5525428,77.0355161 71.7268663,75.8709187 69.7687526,76.011498 C69.138269,76.153211 68.7637713,76.7526569 68.4476407,77.2826635 C66.6548511,77.8123867 65.748531,79.4352839 64.9109478,80.8816067 C64.5657818,80.6698875 64.2543916,80.5993145 64.0179603,80.8470288 L64.0179603,80.8470288 Z M77.4758809,88.7512128 C77.7413477,88.7860742 77.6163176,89.0335051 77.5025461,89.1740844 C77.0714589,89.0683665 77.6077254,88.9977934 77.4758809,88.7512128 L77.4758809,88.7512128 Z M77.0510156,89.1395064 L77.2687813,89.2800857 C77.2853729,89.3506587 76.8602113,89.4212318 76.8317685,89.4566601 L77.0510156,89.1395064 Z M66.7069964,80.9876081 L66.8512847,81.1287542 L68.4156424,80.105303 C68.4997859,78.9052773 70.2644288,79.1529916 70.6937384,78.1652521 C71.4948791,77.8123867 72.8435451,77.6219244 73.6722399,78.5535457 L73.7083861,78.5535457 C73.1993772,80.882457 70.4916755,81.1998941 68.6218532,81.87048 C68.0900308,82.1173441 67.5066558,81.8526242 66.8056576,81.8526242 C66.5375243,81.4994754 66.856914,81.3058955 66.7069964,80.9876081 L66.7069964,80.9876081 Z" id="Fill-71"></path>
                <path d="M72.4702496,77 L72.5681161,77 C73.1874272,76.9084276 73.0995003,76.3177672 72.5658223,76 C71.4250666,76 72.3402708,76.7267421 72.4702496,77" id="Fill-73"></path>
                <path d="M86.9872693,67.0694748 C86.6215163,66.8923948 86.3075087,67.0694748 86.3978221,67.4233501 C86.0619593,68.7705246 85.1630041,66.8206518 84.3199724,67.2815722 C83.2040723,70.5786195 81.9149378,73.9810037 81.2046443,77.4539921 C80.5894851,78.0213883 81.1766825,78.907927 80.7125812,79.439167 C80.3728616,80.6095461 80.3259372,81.9911686 80.1861283,83.1615478 C79.5520065,84.4369793 79.8316244,85.9973899 79.3180275,87.2725367 C79.3479177,88.0175822 79.2052162,88.5493916 78.9497033,89.1165031 L79.159256,89.1512358 C79.204252,89.3286005 79.2900657,89.5065346 79.1470428,89.5774235 L78.9153136,89.2938678 C78.8613184,90.9593307 78.3663627,92.3059358 78.2230184,93.9372354 C78.3178313,94.1493328 77.9398652,94.0784438 78.225911,94.2555238 C77.6705322,94.4328885 78.2937264,94.6817115 78.4560333,95 C78.771005,94.8226353 79.0721567,94.7520311 79.4787274,94.9291111 C79.4584792,92.9800924 79.5510423,90.9952022 79.6921368,89.0450447 C79.7519172,87.8758044 80.4718527,86.7768835 80.4779593,85.7138342 C80.714831,85.8550427 80.4220358,85.8977468 80.5959131,86.1112677 L80.8954577,85.3380374 L80.5351685,85.3380374 L80.4622107,85.1179685 C80.4663889,84.9767601 80.6123044,84.7954097 80.7588627,84.9016007 L80.8224999,85.1657972 C81.4077689,84.6345573 81.2236068,83.6144968 81.65139,82.9414789 C82.4198569,81.0975125 83.442551,79.4713375 83.8944391,77.4861626 L84.0853506,77.4519992 C84.3482556,78.4800311 83.0375873,79.2971044 83.9317215,80.2889801 C84.1502733,78.8005972 84.9023488,77.2060232 84.9303106,75.752373 C84.7631827,76.0362134 84.945095,76.7453874 84.3379708,76.5680228 C85.2076786,73.5553854 86.6417645,70.7195432 88,67.7427774 C87.7181324,67.4233501 87.1360774,67.494239 86.9872693,67.0694748 L86.9872693,67.0694748 Z M84.4131784,77.1704364 L84.0580316,77.3483704 L84.2823686,76.8171305 L84.4131784,77.1704364 Z" id="Fill-75"></path>
                <path d="M82.9738945,100 C83.1312147,99.2636248 82.5385807,98.5259823 82.2362431,98 C81.9252673,98.1051965 81.9846878,98.5259823 82.0611229,98.8419941 C82.4679044,98.9471905 82.5171161,100 82.9665651,99.9463456 L82.9738945,100 Z" id="Fill-77"></path>
                <path d="M79.4067969,96.815896 C79.6471519,96.5126165 80.267092,96.244175 79.870897,95.8744603 L79.8572183,95.8407026 L79.0741104,96.7486506 C78.5396625,96.479669 78.5005803,95.9414357 78.6461612,95.7062118 C78.2465466,95.471258 78.8840736,95.100193 78.1136674,95 C77.7677907,95.6384263 78.3344813,96.2784729 78.198671,96.9846847 C78.8953097,97.05139 78.947582,96.8826013 79.4067969,96.815896" id="Fill-79"></path>
                <path d="M86.1987341,63.2100573 C86.4497667,63.4478039 86.5172793,64 86.9207698,64 L86.9616577,64 C87.1936726,62.9538511 86.3096702,62.6744112 86,62 L86.1987341,63.2100573 Z" id="Fill-81"></path>
                <path d="M82.665795,99.9570333 C83.0740053,100.134672 83.0391701,99.7192269 82.9214171,99.4814206 C82.7727539,99.3634725 82.4307797,98.9461176 82.0775207,99.0058079 L82,99.7192269 C82.2261839,99.8978204 82.4366673,100.017679 82.665795,99.9570333" id="Fill-83"></path>
                <path d="M86.9067166,75.0240863 C86.3170232,74.7915709 86.1824521,76.3018314 86,77 C86.4762908,76.4179334 87.2726289,75.6824129 86.9067166,75.0240863" id="Fill-85"></path>
                <path d="M86.4349255,76 C85.8287576,76 86.0009921,76.5875369 86.1038459,76.9385513 C86.7787858,77.1741314 87.5535365,76.7048558 86.4349255,76" id="Fill-87"></path>
                <path d="M3.01568128,59.9473461 C3.57273384,59.7405671 5.1221866,60.3890546 4.99230388,59.582412 C4.16490284,59.0977098 2.84106117,58.405205 3.01568128,59.9473461" id="Fill-89"></path>
                <path d="M2.1934202,38.073023 L1.16472313,37.0217267 C-0.109934853,36.8057583 0.507459283,38.2584271 0,38.784652 C0.572540717,40.8558152 0.679543974,42.9584077 0.430651466,44.874731 C0.243029316,45.1532698 0.493094463,45.5557957 0.235407166,45.8026168 C0.38228013,47.9366386 -0.0193485342,50.0080902 0.0776872964,52.2029522 C0.208436482,53.0379917 0.198762215,54.089288 1.14127036,54.7691993 C1.49159609,54.9237508 1.96358306,54.9237508 2.08114007,54.6155128 C2.26876221,52.2957985 3.16700326,50.194071 3.9629316,48.0597608 C4.83977199,46.54481 5.2534202,44.6587626 6.62423453,43.5151968 C6.84117264,42.9584077 7.33602606,42.6493047 7.6834202,42.2479321 C8.18501629,41.9696817 8.46087948,41.2580528 9.07299674,41.319758 C9.51390879,42.2784964 9.37436482,43.1743761 9.39254072,44.0714092 L9.5690228,44.2873776 C9.22338762,47.2870033 9.20579805,50.3474691 9.61944625,53.5019346 C9.6865798,53.6567744 9.82114007,53.9655891 10.0723779,53.9655891 C10.4470358,53.4088 10.4637459,54.7077824 10.9685668,54.3052564 L11.4253094,52.8831519 C12.0723127,53.0999853 11.5238111,53.717903 11.8374919,54.120429 C11.6882736,54.429532 12.0183713,54.7691993 11.8163844,54.9863211 C12.1837134,55.0785906 11.7448534,54.6760647 12.0139739,54.6155128 C11.2124756,51.2750665 13.3563518,48.9873582 14.3601303,46.3899702 C14.4085016,46.3285532 14.6116612,46.3899702 14.5128664,46.2362837 C15.4585993,44.4733585 16.3896743,42.6204704 17.2814658,40.7652757 C17.5813681,40.7029937 17.7044951,41.0556364 17.9692182,40.5818899 L18,40.5818899 C17.7062541,40.5818899 17.7845277,40.085076 17.434202,39.9302362 L17.0671661,40.5320067 C16.6195114,40.5014424 16.3137459,39.8593039 16.7139088,39.5502009 C16.5421173,39.487919 16.4691205,39.5845137 16.3257655,39.6462189 C15.9977199,39.5845137 16.3627036,39.4008396 16.1290554,39.339711 C14.7828664,42.0907855 12.8011075,44.5341987 11.7902932,47.3789845 C11.7779805,47.5949529 11.3212378,47.6578115 11.4162215,47.9363503 L10.4842671,49.4821537 C10.1978502,47.2867149 10.6414007,45.1224171 10.1758632,42.8347088 C9.4928013,42.4639005 10.2183713,42.062528 9.83785016,41.5057389 C9.4834202,41.1954825 9.25387622,40.6087058 8.72736156,40.63927 C7.47234528,41.1954825 6.21615635,42.1547975 5.63188925,43.5769021 C5.4123127,43.5769021 5.1604886,43.5769021 5.15521173,43.8237231 C5.24345277,44.0714092 5.37742671,43.7006009 5.44162866,43.9791397 C5.35221498,44.1336912 5.25781759,44.1336912 5.07166124,44.0097039 C5.17016287,44.1645438 5.05026059,44.5964807 4.94589577,44.6893269 L4.7213355,44.5353521 C4.45983713,45.3081096 4.31618893,46.0503029 3.71726384,46.4522521 C3.57889251,46.6682205 3.50237785,46.607092 3.6428013,46.9467593 C3.48302932,47.0707465 3.4671987,47.4104138 3.17726384,47.3798495 L3.29276873,47.4729841 L3.0113355,47.7506578 C3.07055375,48.554268 2.19840391,49.2656086 2.10107492,50.0703721 L1.92664495,50.1315007 C1.67716612,50.6882898 1.51270358,51.3376368 1.14859935,51.8015797 C0.842833876,51.4299064 1.18758958,51.1522327 1.02459283,50.7188541 C1.65957655,48.4311458 1.30045603,45.6489303 2.02250814,43.3297926 C2.5962215,42.679869 2.61674267,41.8148419 2.60560261,40.9489497 C2.62758958,40.3615963 2.51120521,39.5879738 2.58977199,38.9700561 C2.58039088,38.6603764 2.35934853,38.382126 2.1934202,38.073023 L2.1934202,38.073023 Z M11.6176221,50.7188541 C11.5680782,50.502309 11.556645,50.3169048 11.5968078,49.9460965 L12.0468078,49.8532503 C12.1016287,50.2240586 11.749544,50.4717447 11.6176221,50.7188541 L11.6176221,50.7188541 Z M16.2674267,40.4850069 C16.5042997,41.1032129 15.6113355,41.319758 15.7291857,41.9696817 C15.500228,42.339625 14.9842671,42.5570351 15.154886,43.0206896 C14.6318893,43.2060938 14.4351792,43.8554408 14.0957003,44.2873776 C14.7942997,42.9584077 15.3814984,41.691143 16.2674267,40.4850069 L16.2674267,40.4850069 Z M14.648013,44.5414073 C14.7166124,44.2948745 15.0267752,43.8986921 15.0569707,43.8986921 L15.0877524,43.8986921 C15.1918241,43.8986921 14.8209772,44.2020283 15.12,44.5414073 C14.7069381,44.3874324 14.820684,44.862909 14.5210749,44.9254793 C14.5738436,45.0177489 14.6606189,44.9773809 14.7239414,44.9773809 L14.1645928,45.6841081 C14.234658,45.7146723 14.2557655,45.8049235 14.2701303,45.8672055 C14.1596091,45.9294874 14.0792834,45.989751 13.9148208,45.9588983 C13.9992508,45.8839293 13.9458958,45.7515802 13.8685016,45.6861265 C13.9016287,45.6878565 13.9420847,45.6797829 13.9760912,45.6797829 L14.0740065,45.556084 L13.8500326,45.4199865 C14.3199674,45.4199865 14.2194137,44.7268114 14.648013,44.5414073 L14.648013,44.5414073 Z M13.4554397,46.1509343 C13.5026384,46.2671363 13.3358306,46.3011607 13.4314007,46.4522521 L13.2431922,46.4522521 C13.2748534,46.3363385 13.2663518,46.0353091 13.4554397,46.1509343 L13.4554397,46.1509343 Z M13.2346906,46.8230604 C13.4888599,46.6999382 13.4243648,47.1015991 13.4665798,47.2870033 L13.2150489,47.2870033 L13.2346906,46.8230604 Z M12.6281433,49.2350443 L12.3071336,49.482442 L12.6905863,48.554268 L12.6281433,49.2350443 Z M12.2570033,47.6278239 L12.445798,47.6278239 L12.2432248,47.8437924 L12.2570033,47.6278239 Z M10.8469055,50.1009364 C10.9360261,49.2757006 11.5073941,48.8123344 11.9594463,48.205662 C11.9157655,48.4547898 11.824886,48.8183896 12.1136482,49.0496401 L11.8832248,49.1427747 C11.8688599,49.0804928 11.88557,49.0179225 11.8090554,48.9567939 C11.4604886,49.0804928 11.7847231,49.6678462 11.4039088,49.7918334 C11.5106189,50.2546229 10.8,50.4406037 11.220684,50.9045466 C10.8949837,50.7188541 10.6982736,51.0896624 10.6988599,51.3682011 L10.7703909,51.6778808 C10.3889902,51.5230409 10.5915635,52.2652342 10.1711726,51.8015797 C9.85837134,50.9968161 10.8439739,50.9045466 10.8469055,50.1009364 L10.8469055,50.1009364 Z M10.2459283,52.2652342 C10.4039414,52.5434846 10.6399349,52.8831519 10.0797068,52.6360425 C10.0096417,52.6049015 9.87009772,52.5434846 9.87214984,52.4189207 C9.71677524,52.0175481 10.1793811,52.3889331 10.2459283,52.2652342 L10.2459283,52.2652342 Z" id="Fill-197"></path>
                <path d="M14.1320803,38.7041808 C13.6687124,40.119946 13.0613732,41.4782752 13,43 C13.3286025,42.2216427 13.6454418,41.3610925 13.9617696,40.5111052 L13.9221327,40.4348539 C14.277586,40.116315 14.2688914,39.4851788 14.5785705,39.0606803 C14.7450454,38.9190708 15.0621404,38.5361639 14.9726378,38.5361639 L15,38.5361639 C14.7133359,37.451151 14.2489451,38.2790221 14.1320803,38.7041808" id="Fill-199"></path>
                <path d="M6.99153769,37.2446623 C6.74815945,36.7922336 6.21588934,37.0571471 6.08988841,37.3206534 C6.03479294,37.4715802 5.87094381,37.7734339 6.19864206,38 C6.59772488,37.9627081 7.06915043,37.6605026 6.99153769,37.2446623" id="Fill-201"></path>
                <path d="M16,55.3496869 C15.8675436,55.1773196 15.3316827,54.657392 15.0134061,55.3496869 C14.8815849,55.5664579 15.7608161,55.9132108 15.9469539,56 L16,55.3496869 Z" id="Fill-203"></path>
                <path d="M28.4630333,39 C28.1685943,39 27.9928098,39.2999689 28.0002257,39.634442 C28.1757355,40.0671433 28.1556851,40.7000311 28.5989916,41 C28.784664,40.9002176 28.8986493,40.732981 29,40.5001554 L28.9934081,40.4668946 C28.7385206,39.9341001 29.3070735,39.0994716 28.4630333,39" id="Fill-205"></path>
                <path d="M18.3030143,56.1831968 C18.8267767,56.309422 19.2562864,56.5920377 19.7511897,56.5920377 C20.3283722,56.5287787 20.7400752,57.1575619 21.3071263,56.90599 C21.3458099,55.2726765 21.7479955,53.6399487 22.1646108,52.0701872 C22.5192096,51.347394 23.0131918,50.656816 23.042665,49.8086762 C23.4374824,49.1180982 23.6201545,48.3642612 23.9821216,47.6736832 C23.7595379,47.704727 23.5796289,47.641468 23.4433156,47.4847847 C23.3438437,47.2027548 23.632435,47.1702466 23.6646712,46.887631 C23.4436226,46.7930353 23.4064742,46.6369377 23.3370895,46.4799616 C23.7751955,45.0039171 24.7183363,44.1238548 25.4695946,42.7116552 C25.6986255,42.4290395 25.992436,42.146131 26.3983058,42.0518281 C26.6261087,42.1771748 26.6783007,42.3968242 26.788825,42.5857228 C26.5757587,43.9044982 26.2377385,45.2543175 26.0249792,46.5736787 C25.5635402,47.9565918 25.2899926,49.4320505 24.9817526,50.9072164 C24.6504867,52.4151833 24.2255821,53.9533153 24.5703565,55.6809317 C24.8214923,56.1831968 25.4508669,56.3404658 25.9067796,56.5920377 C26.7090019,56.7803505 27.1277662,56.4661053 27.8480163,57 C28.0042854,56.9686633 28.2526581,56.90599 28.1092835,56.7170915 L27.7955172,56.7803505 C26.8361048,55.9327964 27.814552,54.9270947 27.533022,54.0165744 C27.8575337,52.4778566 28.0334515,51.0018121 28.4319531,49.4947238 L28.7773415,49.149142 C28.6198444,48.2069922 29.2277281,47.5793804 29.0112846,46.6682744 L29.4091721,45.1606004 L29.3898304,44.2500801 C29.0855815,43.2449641 28.8860237,41.9888619 27.4746897,41.4549673 C27.225089,41.2350249 26.8486923,41.4549673 26.5951005,41.0783416 C25.274642,40.5128175 24.7748265,41.4549673 24.1267242,42.0518281 C23.786555,42.146131 23.658531,42.7116552 23.2287142,42.4290395 C23.2161268,41.2669473 23.5581381,40.3555484 23.7727394,39.3190958 C23.4703327,38.597474 23.787476,37.7185833 23.9290085,36.932531 C24.3698777,35.739395 24.8724563,34.3892829 25.4511739,33.2277765 L25.4579281,32.9762046 C26.0486192,32.6932961 25.6412143,31.8138196 26.2635275,31.6565506 C26.8579027,29.8674324 28.0048994,28.7369698 28.9480402,27.1657438 C29.5869321,26.9463872 30.3532339,27.5429552 30.8901979,27.1657438 C31.0682648,26.9463872 30.9933539,26.6324349 30.91875,26.317604 C30.1125366,25.2826157 28.6821678,25.2193566 27.5769247,25 C25.2153887,28.3597584 24.0825145,32.3160847 22.7961344,36.178694 C21.3323013,40.5438613 19.835311,44.9099071 19.2949699,49.5568114 C19.297733,50.1223356 19.6118063,50.750826 19.0057646,50.9707683 C19.1592706,52.4462271 18.1958671,53.5146021 18.348759,54.9900609 C18.5084053,55.5245413 17.52566,55.6809317 18.3030143,56.1831968" id="Fill-207"></path>
                <path d="M27.1062828,37.7002841 C27.2149584,37.9134339 27.4839838,38.0724268 27.741822,37.9661003 C28.0337545,37.7529505 28.113663,37.3808078 27.7945616,37.0066776 C27.323634,36.9535144 26.7621435,37.2208212 27.1062828,37.7002841" id="Fill-209"></path>
                <path d="M35.8419649,56 L36,55.8852286 C35.7234387,55.578215 35.8095589,55.0395066 35.1800822,55.0014885 C34.6451602,54.9616772 35.4331158,55.7313631 35.8419649,56" id="Fill-211"></path>
                <path d="M36.1655596,53.0404153 C36.0514905,53.3392257 35.8720176,53.6364489 36.1392121,54.0197834 C36.5418637,54.2328792 36.3530917,55.041215 36.9113485,54.9983578 L37,54.190022 C36.6999486,53.8066875 36.7839506,52.7852558 36.1655596,53.0404153" id="Fill-213"></path>
                <path d="M33.4682288,43.3370293 C33.3933912,44.2237258 33.0661532,45.0250347 32.54229,45.798059 C32.5948881,46.2271315 32.4420359,46.5985674 32.216817,47.1132943 C32.4360347,47.7147429 31.843335,47.8863185 31.6375316,48.4581484 C31.8376869,49.0024941 31.3837192,49.0024941 31.2982914,49.346179 C31.2029793,49.660512 31.1164925,50.0036632 31,50.3750991 C31.3109997,50.775887 31.8959332,50.8335236 32.35449,50.9762809 C33.1632303,51.1478566 33.150875,50.3468145 33.3997454,49.9174752 C33.616139,49.3744636 33.3422051,48.7159121 33.946201,48.4581484 C34.1615357,47.9146032 34.3270962,47.4569792 34.4428827,47.0855433 C34.2367263,46.3987071 34.7976553,45.9979192 34.971335,45.5685799 C35.3292846,44.9967501 36.5220972,44.6813498 35.7384204,43.7089989 L35.7295952,43.6807143 C35.4584854,42.90769 33.6832104,42.7929505 33.4682288,43.3370293" id="Fill-215"></path>
                <path d="M38.5383607,40.6164723 C38.8839835,40.4087405 39.1898224,40.1547264 38.8561348,39.6931958 C38.3603277,39.5319614 38.1352999,38.9778664 37.5544548,39.0006846 C36.9651555,39.0926032 37.3361405,39.6931958 37.0949505,39.9930615 C36.7237169,40.4087405 37.5653954,40.3624583 37.4990059,40.8244194 C38.0122185,41.3556963 38.0544889,40.5008744 38.5383607,40.6164723" id="Fill-217"></path>
                <path d="M47.8697867,61 C48.278793,60.4003264 47.6181789,59.2000466 47.3435932,59 C47.3321043,59.7997202 46.5545903,60.4003264 47.3771984,61 C47.4998428,61 47.595201,60.8013523 47.8697867,61" id="Fill-219"></path>
                <path d="M39.2243848,45.3286022 C40.0993582,45.9005788 39.7682703,46.7595816 40.1854161,47.5228101 C41.1051395,48.6987869 42.4094633,49.239926 43.669037,49.8753568 L43.7200458,49.8113096 C44.5624737,50.3838793 43.9660147,51.1156773 44.0511337,51.750515 C43.388019,53.468224 42.1450311,54.5813397 41.0447426,56.011133 C40.260834,56.5208416 40.0339543,57.5375901 39.3170143,58.0461126 C39.5482752,58.8733883 40.3005771,58.6512989 40.8541636,59 C40.897349,58.6186822 41.0819822,58.2693881 41.2228041,58.014682 C41.5717294,57.7925926 41.7485392,57.4109784 42.2295242,57.3155007 C42.8779308,56.5208416 43.7043989,55.6310013 44.6676207,55.0258151 C44.7136225,54.5172926 45.2246496,54.5487231 45.3523281,54.1045443 C45.7353637,53.8812688 45.7920054,53.2775651 45.974135,53.0548826 L45.9512906,52.9594049 C46.0508047,51.9737905 45.9863396,51.1471078 45.8696139,50.0974462 C45.7100157,48.7308105 44.4817358,47.5228101 43.1874261,46.8858968 C42.4545263,46.3462402 41.3814634,46.3462402 41.2040278,45.3286022 C41.4922433,44.8518067 41.7206877,44.1206018 42.3565768,43.8347617 C42.3152691,43.1029637 43.3197987,43.2307615 43.6255386,42.6896224 C44.5196013,42.4989635 45.056915,41.7991891 45.8861996,41.4807325 C46.6535225,40.6232123 48.359971,40.8767323 49.2249304,40.1461203 C49.813253,39.3828918 51.1776607,40.8767323 51.9462354,40.0186191 C52.2234981,38.9375269 51.3810702,38.0785241 50.5045321,37.221597 C49.5607124,36.6490273 48.5411618,35.4718645 47.5238018,36.2677096 C45.2647056,37.7615501 43.2271691,39.7648026 41.057573,41.3538242 C39.8724785,42.1484833 38.4398504,43.4528509 39.2243848,45.3286022" id="Fill-221"></path>
                <path d="M48.5162728,44.9976897 C48.9146038,45.0406072 49.0335952,44.4762012 48.9922384,44.0854897 C48.6650121,43.4340339 47.8618201,43.3040667 47.3709806,43 C46.8054087,43.0878595 47.0335964,43.8247454 47.113045,44.2158618 C47.3912962,44.8239951 48.1480525,44.9102351 48.5162728,44.9976897" id="Fill-223"></path>
                <path d="M63.9992822,28.7754878 L63.9811538,28.7003253 C63.7066389,28.55174 63.4931684,28.3279922 63.5013076,28.0290817 C62.9803952,28.177319 61.8246208,27.6560527 62.0225527,28.4765774 L62.8442477,28.9247691 C63.2223531,28.8492585 64.0273996,29.2236795 63.9992822,28.7754878" id="Fill-225"></path>
                <path d="M59.9902159,28.8618274 L60,28.5810902 L59.83134,28.3698003 C59.2974055,27.949841 57.7529088,27.8086535 58.0338535,28.3698003 C58.536572,29.0023598 59.4819064,29.1432197 59.9902159,28.8618274" id="Fill-227"></path>
                <path d="M65,33.42899 C64.7449004,32.9714362 63.9826456,32.628404 64.0003017,33.7714895 L64.2916267,34 C64.5074568,33.6569678 64.9945205,33.8844131 65,33.42899" id="Fill-229"></path>
                <path d="M49.2178243,55.8714243 C49.0118813,55.965548 49.0201069,56.2795867 49,56.4687136 C49.3104378,56.8147134 49.2784496,56.4059645 49.5477597,56.4370459 C49.7000844,56.531756 49.6799775,56.7200033 49.742126,56.8457947 C49.9523341,56.908837 50.5092332,57.1923808 50.5436586,56.7824591 C50.3684852,56.5950915 50.2289558,56.2795867 50.2259093,56.1227139 C50.5835677,56.1227139 50.706646,56.5003814 51.0475487,56.5628373 C51.6407012,56.3121341 52.3791714,57.2228757 52.9433821,56.8457947 C52.8602128,56.217424 53.0606721,55.6822974 53.1237345,55.1166758 C53.2087317,54.6442982 53.7104893,54.141719 53.3878656,53.6071788 C53.3324194,52.5380983 53.7634983,51.5948093 53.9831505,50.5890644 C55.6185086,50.872315 55.5725066,52.7577202 56.4785339,53.8279735 C56.8237017,54.7390083 57.7891357,55.3679654 57.8052822,56.4059645 C57.8939351,56.7824591 58.3993485,56.8457947 58.5845754,56.9399183 C58.9656918,57.0343352 59.3468082,56.8457947 59.4534355,56.4687136 C59.5061399,56.2795867 59.4829865,55.9025057 59.1774231,55.7133787 C59.191437,54.8023439 57.9774091,54.6442982 57.9509046,53.7010092 C57.1837973,53.3564756 57.513428,52.5380983 57.1664323,52.0352259 C57.6687992,51.5326466 57.3675009,50.8089795 57.4177681,50.0542309 C58.3679696,48.2626562 59.9883999,47.0985724 61.017201,45.3691603 C61.4857518,44.5833305 61.9795885,43.7664193 62,42.885293 C61.6039558,42.7284202 61.3617595,42.2569223 61.1469816,42.0370072 C60.5221457,41.879548 59.7848941,40.9667539 59.249625,41.4707992 C58.8547994,43.9549598 57.000703,45.6524109 55.4936024,47.5700703 C55.5015232,47.8855752 55.0920744,47.9477378 54.8008296,47.8222396 C54.4215411,47.3193672 54.7965645,46.972781 54.7983924,46.5646186 C54.4992267,45.4322027 55.4186586,44.8976624 55.4101284,43.8919175 C55.4731909,43.3257095 55.6742595,43.0738335 55.5920041,42.4454628 C55.9764717,41.7215024 56.1208755,40.8107608 56.5138733,40.1193478 C56.9662777,39.2698892 57.1789229,38.2321833 57.7275966,37.5085162 C57.9216582,36.5341458 58.8416995,36.000192 59.4704959,35.3398604 C59.4543495,34.3021545 60.5836849,33.8303633 60.1069085,32.6351982 L60.5663198,32.5099933 C60.3844441,32.289785 60.669596,31.975453 60.1650966,31.9127039 C59.6304368,31.723577 59.8010405,31.7546583 59.5384327,32.16458 C58.4730737,31.2517859 57.0814351,30.7489134 55.9938367,31.1265809 C54.9568101,32.1323258 54.8078365,33.5784873 54.3197882,34.835815 C53.5325741,35.6541923 53.7382124,36.9428946 53.1444507,37.8861836 C53.0119282,38.9869318 52.2691929,39.9923835 52.3736877,41.1247995 C52.0297385,42.1622122 51.9703318,43.2946282 51.6592848,44.3326273 C51.3726097,46.720905 50.6792276,48.7655286 50.5570632,51.1546859 C49.8316929,52.0988546 50.3209599,53.4813874 50.0580474,54.5815491 C50.0455568,55.0855945 49.7174494,55.4937568 49.9919385,55.965548 C49.7198866,56.0599648 49.523997,56.0599648 49.2178243,55.8714243" id="Fill-231"></path>
                <path d="M72.5672599,41 C71.4245396,41 72.3397821,41.7266949 72.4704041,42 L72.5663713,42 C73.1892694,41.9101695 73.0977451,41.3182203 72.5672599,41" id="Fill-233"></path>
                <path d="M68.4938125,41.1963193 C67.0859294,41.691136 66.3742849,43.2056864 65.7158853,44.5556052 C65.4453361,44.3581085 65.2004633,44.292993 65.0139708,44.5230474 C64.9353197,44.8523109 65.2101934,45.2153607 65.3045207,45.5437027 C64.7747739,47.3890524 65.5629074,49.5953018 66.5115866,51.4394229 C67.1410663,51.8350305 67.2697191,52.6256313 67.8835226,53.0857401 C68.6786833,53.1523914 69.6062808,54.6005978 70.3557643,53.7129379 L71.8177033,53.7780534 C71.8606776,53.8437832 71.9825734,53.8769553 71.9441938,53.9755501 C72.2052833,53.9755501 72.3217735,53.9755501 72.4428585,53.7129379 C72.6585411,53.7780534 72.9893626,53.5473847 73.119637,53.9104345 C73.2450465,53.8112255 73.5853277,53.7780534 73.5558673,53.4813477 C73.6134367,53.4813477 73.6939799,53.44879 73.7004665,53.4813477 C73.8742559,53.4813477 73.7691174,52.9548948 74.1275073,53.1523914 C75.0945655,54.0738377 75.0159143,52.230638 75.9862158,52.591845 C75.9337817,52.3289256 75.9875672,52.1639868 76,51.9333181 C75.8510763,51.7683792 75.6799897,51.6375338 75.6248528,51.505767 C75.4510634,51.505767 75.4451173,51.7683792 75.3461952,51.9999693 C75.1621352,51.8024727 75.3926832,51.505767 75.3345732,51.505767 C73.5839763,53.1849492 71.0309212,53.3173303 68.551382,52.6581891 C67.626217,52.230638 67.1380932,51.2419262 66.648618,50.3846741 C66.2275234,49.0028119 65.9029184,47.5208192 66.6675376,46.5646651 L67.4916181,47.0585603 C68.2267769,47.256057 69.1524824,47.6854509 69.7206088,47.1909414 C71.2230895,47.0260025 72.2452846,45.610354 73.5337044,44.9505985 C73.4428907,44.06171 74.0645323,43.4031831 73.5261366,42.4479505 C72.5058335,40.9662649 71.0711928,39.8795727 69.5333054,40.0107252 C69.0376138,40.142492 68.74328,40.702117 68.4938125,41.1963193 L68.4938125,41.1963193 Z M75.587284,51.9007603 C75.7972908,51.9333181 75.6983687,52.1639868 75.6086361,52.2951393 C75.2702468,52.1968517 75.691882,52.131429 75.587284,51.9007603 L75.587284,51.9007603 Z M75.2540301,52.2625815 L75.4248464,52.3943483 C75.43809,52.4606924 75.1042955,52.5267294 75.0815921,52.5592872 L75.2540301,52.2625815 Z M70.2592747,41.9337835 C70.8887545,41.60452 71.9479777,41.7049577 72.5988095,42.2096031 L72.6271888,42.2096031 C72.228257,44.7334443 70.100621,44.7663092 68.6311142,45.3922784 C68.2140738,45.6223328 67.7548698,45.4190003 67.2048521,45.4190003 C66.9937643,45.0885083 67.2445831,44.920805 67.1270118,44.6244065 L67.240529,44.772145 L68.470028,43.76439 C68.535976,42.6448328 69.9216963,42.8564583 70.2592747,41.9337835 L70.2592747,41.9337835 Z" id="Fill-235"></path>
                <path d="M73.1721577,41.0160196 C72.8156978,41.2207755 73.0319,41.752302 73.6442447,41.9974752 C74.3947946,42.0394178 73.6818748,41.5483087 73.9473383,41.3031354 C73.7516616,41.1803581 73.4321477,40.9351848 73.1721577,41.0160196" id="Fill-237"></path>
                <path d="M68,57.7286318 C68.0806676,58.1712361 68.3404033,58.5823099 68.7691238,58.9285549 C69.0382476,58.961264 69.183936,59.0873856 69.4687065,58.8979086 L70,58.5183651 L69.0458971,57.318442 L68.7173157,57.0650201 C67.9694019,56.7806572 68.3504868,57.507919 68,57.7286318" id="Fill-239"></path>
                <path d="M76.7185581,46 C76.3454411,46.0487637 76.4110178,46.5327884 76.1116147,46.6779507 C75.8308795,46.895807 76.1604382,47.3073634 76.2248183,47.5733061 C76.4684572,47.8401519 76.7975373,47.9776384 77.1570124,47.9776384 C77.6471623,48.0979673 77.8058387,47.7107926 77.9664298,47.3398726 L77.9925169,47.3398726 C78.0726928,46.9689525 77.4810666,46.7664477 77.5306081,46.3305094 C77.4176439,45.9674909 77.0325603,46.0239303 76.7185581,46" id="Fill-241"></path>
                <path d="M73.8637689,66.0605457 C73.5462312,66.2824116 73.2218648,66.4728786 73.023546,66.823006 C72.9159929,67.1719486 73.1991022,67.4900847 73.4235979,67.6805517 C73.8540948,67.8390273 74.4194598,68.1882661 74.7156576,67.871611 C75.6662789,65.933469 76.0202367,64.0590134 77.362943,62.3762097 C79.0177809,60.3112872 80.139975,58.1835668 81.9288275,56.3091113 C82.5496762,55.8005082 83.4610321,55.6414401 84.2156109,55.3241927 C84.3501945,55.1029192 84.4005567,54.9115636 84.4065319,54.657114 C84.4796566,54.4352481 84.7693101,54.7841907 84.7380116,54.4992308 C84.1840279,54.3395703 84.2346746,53.450922 84.1606962,52.9743102 C84.8014622,52.2752402 85.2111883,51.3540081 85.9817008,50.6869294 C87.2985148,48.749676 88.6124834,46.9386107 90.1953347,45.3825875 C90.9891789,44.6838136 91.6652269,43.7750226 92.5711767,43.1713342 C92.7185642,42.7264176 93.246371,42.2415118 92.8631065,41.7545325 L92.8329461,41.7545325 C92.3111144,41.2678494 91.5753148,40.9796311 91.0304361,41.138403 C90.6141658,41.3288699 90.5105962,41.8149606 90.5842899,42.2912761 C89.9853501,43.1808131 89.2165448,44.1227803 88.5259857,45.0123173 C86.5334083,46.7910951 85.7142408,49.3264088 83.8858384,51.2959497 L83.6658951,51.2615887 C83.5685852,50.8160796 83.4752587,50.5299349 83.4234739,50.1490009 C83.0854499,48.1788676 83.0666708,46.2730131 82.8896919,44.6216083 C83.0882953,43.5730032 83.370551,42.2068545 82.4808195,41.0634603 C82.0474773,40.6182475 81.6827073,40.2053222 81.1836383,40.014559 C80.536328,39.9837526 79.8890178,39.9511688 79.5791625,40.4911708 C78.8962858,40.9991814 79.1350081,41.9518124 79.4368965,42.7773667 C80.4495458,45.605342 80.6080301,48.4321324 81.0618586,51.3540081 C81.2021328,52.2752402 81.4192307,53.1321934 81.2396911,53.9903315 C81.1788012,53.9903315 81.0706791,54.0543142 80.9827587,53.9272375 L80.7770421,54.2447812 C81.5825521,54.7210967 80.5294993,55.0700392 80.5926654,55.6414401 C78.1334556,58.9140358 75.4972669,62.2165492 73.8637689,66.0605457" id="Fill-243"></path>
                <path d="M84.0178552,42 C83.9220898,42.3332297 84.2043189,42.8001243 85.039859,43 C85.0236447,42.6661486 86.4515112,43 85.8536111,42.2657756 C85.3565433,41.8001243 84.6091682,42.1327324 84.0178552,42" id="Fill-245"></path>
                <path d="M86.138505,54.3727494 L86.5654335,54.8731381 C87.2937984,55.3277285 87.2915632,54.5092962 87.9988532,53.2362734 C88.0432384,53.0993026 86.7835279,52.7358848 86.9521279,53.32787 C86.5121073,53.553893 85.6678299,53.8265625 86.138505,54.3727494" id="Fill-247"></path>
                <path d="M35,88 C34.957708,86.3865592 33.0777626,87.0492031 33,87.745303 C33.6429059,87.3977927 34.4345157,87.4236941 35,88" id="Fill-249"></path>
                <path d="M6.26000393,53 C5.65215393,53.2249084 5.78861005,53.0178904 5,53 C5.16924103,54.2225135 7.1865469,54.2838522 6.98599775,53.4035288 C6.65165072,53.3842185 6.26354824,53.4307905 6.26000393,53" id="Fill-251"></path>
                <path d="M44.0806417,81.9305827 C44.9778526,82.3575714 45.4113124,80.6587534 44.478449,81.0625958 C45.4426759,81.6869373 43.6032194,81.1765 44.0806417,81.9305827" id="Fill-253"></path>
            </g>
        </g>
    </g>
</svg>