<?xml version="1.0" encoding="UTF-8"?>
<svg width="125px" height="150px" viewBox="0 0 125 150" version="1.1" xmlns="http://www.w3.org/2000/svg" xmlns:xlink="http://www.w3.org/1999/xlink">
    <!-- Generator: Sketch 54.1 (76490) - https://sketchapp.com -->
    <title>Group 4 Copy</title>
    <desc>Created with Sketch.</desc>
    <g id="Page-1" stroke="none" stroke-width="1" fill="none" fill-rule="evenodd">
        <g id="Wireframe" transform="translate(-450.000000, -85.000000)" fill="#D4D4D4">
            <g id="Group-4-Copy" transform="translate(450.000000, 85.000000)">
                <path d="M41.9106177,21.599 C41.6526177,21.336 41.5566177,21.207 41.1986177,21.072 C40.9446177,21.401 41.1666177,21.795 41.5256177,21.928 L41.9106177,21.599 Z" id="Fill-19"></path>
                <path d="M38.991911,14.2457778 C38.7475556,13.792093 38.2143456,14.0563586 38.0917775,14.3212 C38.035568,14.4726202 37.8700621,14.7737333 38.1979511,15 C38.5968828,14.9625768 39.0676378,14.6620394 38.991911,14.2457778" id="Fill-21"></path>
                <path d="M36.2825758,16.6071974 C35.9972829,16.5829601 36.1874782,16.8521801 36,16.924519 C36.1645771,17.2921795 36.3753445,17.5375352 36.7211893,17.7086875 C37.2634398,17.6341113 37.8056903,17.879094 38.3203819,17.6844502 C38.3277569,17.6102469 38.2532314,17.5114335 38.3436712,17.4637047 C38.484959,17.732179 38.6565229,17.3906201 38.8498234,17.5617724 C38.9720918,17.5375352 39.1164849,17.3906201 39.2073128,17.5617724 C39.2146877,18.564822 38.6196483,19.4936682 38.5381361,20.5470567 C38.1119435,21.0112933 38.3875325,21.7451229 38.0183985,22.2354612 C37.8949656,22.8950875 37.5782323,23.6046798 37.7917168,24.2904077 C38.18414,24.8773222 38.8533168,24.9015595 39.4370997,25 C39.9614952,24.8527121 39.5651904,24.3642381 39.834569,24.0950181 C39.3831464,22.4066136 40.0278694,21.0355306 40.1854598,19.5436342 C40.5235415,18.711737 40.5926328,17.7086875 41.1608896,17.0975357 C42.7103986,16.7533667 44.5747002,16.7776039 45.1720685,16.8279429 C45.4255327,16.6071974 45.8579358,16.924519 46,16.5587229 C45.9200404,16.4360451 45.9673951,16.3133673 45.7779762,16.2648927 C45.481815,16.4118078 45.1833249,15.8972322 44.8786244,15.7987917 C44.7792571,15.7022155 43.3570625,15.8248933 42.1444708,15.6518766 C41.9500058,15.5795377 41.6336607,15.4326226 41.6018321,15.1876399 C41.786205,14.135743 42.2314171,13.328083 42.4728487,12.3007962 C42.5966696,11.9573729 42.8866203,11.7862206 42.875752,11.4200516 C43.2208206,11.1512045 43.1354268,10.4654766 43.6408027,10.3427988 C44.0871793,9.75588429 45.137911,9.77974866 45.3859411,8.99781748 C45.3649808,8.58168243 45.0789116,8.23825915 44.9589722,7.94442902 C44.523852,7.5044296 43.7692815,6.89327785 43.034895,7.01595566 C42.9351395,7.13826058 42.7224314,7.21059947 42.8893374,7.48019234 C42.5807553,7.79751396 42.6777937,8.31208956 42.369988,8.63015694 C41.9146838,11.1269672 40.6943291,13.181168 39.9933238,15.6041478 C39.5368552,17.1210272 37.4633389,16.2152996 36.2825758,16.6071974" id="Fill-23"></path>
                <path d="M56.4639145,10 C56.1681898,10 55.9917452,10.4482846 56.0002973,10.9491741 C56.1753916,11.5994917 56.1546864,12.5494282 56.600299,13 C56.7866461,12.849047 56.9014251,12.602033 57,12.249047 L56.9936984,12.2002541 C56.7398342,11.3989835 57.3110286,10.1494282 56.4639145,10" id="Fill-25"></path>
                <path d="M55.1075906,10.69799 C55.2163953,10.9116061 55.4853607,11.0740518 55.74214,10.9652132 C56.0328663,10.7507849 56.1129466,10.3779721 55.797848,10.0067837 C55.3243297,9.95317662 54.7602858,10.2203998 55.1075906,10.69799" id="Fill-27"></path>
                <path d="M48.2338869,24.3629144 C48.6367407,24.461244 48.9666641,24.6818311 49.3467512,24.6818311 C49.7908937,24.6332272 50.1080832,25.1230054 50.5425788,24.9270941 C50.5742206,23.6518013 50.8833067,22.375387 51.2024256,21.1483243 C51.4763971,20.5852663 51.8568701,20.0453886 51.8780932,19.3821317 C52.182163,18.8426279 52.3233934,18.2533985 52.6012236,17.7138947 C52.4310526,17.7393183 52.2929092,17.6895928 52.1871794,17.5665874 C52.1107761,17.3460003 52.3334261,17.3216983 52.3565786,17.1003634 C52.1871794,17.0278314 52.1586246,16.904826 52.1049879,16.7821945 C52.4422429,15.6287855 53.1676885,14.9419744 53.7445721,13.8379171 C53.9205312,13.6173299 54.1474259,13.3956212 54.459599,13.3230891 C54.6344006,13.420297 54.6741457,13.5926541 54.7609677,13.7399614 C54.5961989,14.7703651 54.3376625,15.8250707 54.1736654,16.8554743 C53.8186602,17.9352296 53.6072005,19.0878909 53.3706589,20.240926 C53.1144377,21.418637 52.7891448,22.6213977 53.0542412,23.9699702 C53.2479506,24.3629144 53.7322241,24.4859198 54.0810554,24.6818311 C54.6996135,24.8283907 55.0206617,24.5842493 55.5736211,25 C55.6951718,24.975698 55.8877236,24.9270941 55.7762056,24.7801606 L55.5338759,24.8283907 C54.7968541,24.167377 55.5500827,23.3814886 55.332449,22.6703755 C55.5824962,21.4679887 55.7179384,20.3149536 56.0247093,19.1364948 L56.2905774,18.8680515 C56.1682549,18.130767 56.635164,17.640615 56.4692376,16.9295018 L56.7760085,15.7517909 L56.7617311,15.0403039 C56.5267331,14.2544155 56.3719971,13.2729897 55.2880733,12.8561174 C55.0955216,12.6845081 54.8072727,12.8561174 54.6108622,12.5615027 C53.5956242,12.1195807 53.2116783,12.8561174 52.7135133,13.3230891 C52.451504,13.3956212 52.352334,13.8379171 52.0216389,13.6173299 C52.0123779,12.70881 52.2755448,11.9969492 52.4406994,11.1886282 C52.2072449,10.6240747 52.4518898,9.93688965 52.5618643,9.32410606 C52.9010487,8.39091031 53.2861522,7.33695246 53.7310665,6.42768481 L53.7368546,6.23252127 C54.1910298,6.01118638 53.878085,5.32512301 54.3561845,5.20211764 C54.8134467,3.80307177 55.6944,2.92034935 56.4210032,1.6929128 C56.9118366,1.52130348 57.5029976,1.98752748 57.9143407,1.6929128 C58.052484,1.52130348 57.9953745,1.27566662 57.9378791,1.03115139 C57.3173916,0.221334889 56.2164893,0.172730944 55.366406,0 C53.5497051,2.62536079 52.6780128,5.7165717 51.6886285,8.7348767 C50.5626443,12.1442565 49.41235,15.554758 48.9963765,19.1862204 C48.99792,19.6281424 49.2394779,20.1179206 48.7737264,20.28953 C48.8921901,21.4436867 48.149766,22.2770574 48.2682298,23.4304664 C48.3897805,23.8469649 47.6350084,23.9699702 48.2338869,24.3629144" id="Fill-29"></path>
                <path d="M62,26.0916596 C62.0411581,26.7567466 62.1703094,27.3727284 62.3843315,27.8948326 C62.5183083,27.9403271 62.592109,28.1316931 62.7337496,27.8471716 L63,27.2781286 L62.5222821,25.4771221 L62.3587851,25.0980009 C61.984956,24.6704965 62.1754187,25.7601993 62,26.0916596" id="Fill-31"></path>
                <path d="M63.1766411,13.941252 C61.8962074,14.3284752 61.2485624,15.51893 60.6515085,16.5796532 C60.4029702,16.4242908 60.1813335,16.3730291 60.0126969,16.5540224 C59.9412271,16.8130912 60.1909699,17.0981852 60.2764928,17.3556768 C59.7950754,18.8055948 60.511781,20.5386352 61.3730323,21.9881589 C61.9467984,22.2980951 62.0624349,22.9195449 62.6213448,23.2823201 C63.3436717,23.3339761 64.1876578,24.4727749 64.868227,23.773644 L66.1980472,23.8249057 C66.2361912,23.8773504 66.3474111,23.9029812 66.3132823,23.9802681 C66.5501766,23.9802681 66.6561767,23.9802681 66.7665936,23.773644 C66.9617302,23.8249057 67.2616625,23.6439124 67.3817157,23.9286121 C67.4941401,23.8505365 67.8045118,23.8249057 67.7780118,23.593045 C67.8306103,23.593045 67.9048908,23.5674141 67.9109135,23.593045 C68.0687092,23.593045 67.9723454,23.1786137 68.2967701,23.3339761 C69.1764912,24.0583437 69.1058244,22.60882 69.987553,22.8935197 C69.9397726,22.6868955 69.9895606,22.5579526 70,22.3769593 C69.8642877,22.2472277 69.7089011,22.1435213 69.6583101,22.0390263 C69.4997114,22.0390263 69.4956962,22.2472277 69.4065597,22.4274324 C69.2375216,22.2732529 69.4475143,22.0390263 69.3957188,22.0390263 C67.8025042,23.3588184 65.4825462,23.4637077 63.2284367,22.9451757 C62.3868596,22.60882 61.9427832,21.8327964 61.4975022,21.1608736 C61.1160622,20.0733365 60.8189406,18.9093012 61.5159719,18.1589085 L62.2643973,18.5461316 C62.9329211,18.7014941 63.7736951,19.0374555 64.2900443,18.6502323 C65.656804,18.5205008 66.5859115,17.4089101 67.757936,16.8903781 C67.6744207,16.1928244 68.2405579,15.6742924 67.7523148,14.9238997 C66.8228058,13.7594701 65.5194856,12.9061596 64.1214077,13.0082887 C63.6705055,13.1119951 63.402293,13.5524516 63.1766411,13.941252 L63.1766411,13.941252 Z M69.6253858,22.3493568 C69.8165073,22.3769593 69.7261663,22.5579526 69.6438555,22.6620533 C69.3354914,22.5827948 69.719742,22.5323217 69.6253858,22.3493568 L69.6253858,22.3493568 Z M69.3210368,22.6344508 L69.4780295,22.7381572 C69.4896735,22.7898133 69.1853245,22.842258 69.1652487,22.8678888 L69.3210368,22.6344508 Z M64.7810981,14.6021339 C65.3540611,14.343065 66.3156914,14.2539485 66.9075256,14.9018178 L66.9340256,14.9018178 C66.5706539,16.8458199 64.6361509,16.8280754 63.3019141,17.3190049 C62.9212771,17.4999982 62.5045037,17.2988946 62.0030106,17.2988946 C61.8130936,17.0402201 62.0395485,16.8876179 61.9339498,16.6549685 L62.0363364,16.7594636 L63.1537547,16.0035504 C63.2147851,15.1253977 64.4747416,15.3268957 64.7810981,14.6021339 L64.7810981,14.6021339 Z" id="Fill-33"></path>
                <path d="M65.5462404,12 C64.7582404,12 65.3902404,12.7269577 65.4802404,13 L65.5452404,13 C65.9742404,12.9078309 65.9132404,12.3167013 65.5462404,12" id="Fill-35"></path>
                <path d="M66.2068757,13.0162973 C65.8878757,13.2214177 66.0808757,13.7519876 66.6268757,13.9976334 C67.3008757,14.0381587 66.6638757,13.5481141 66.9028757,13.3024684 C66.7248757,13.180269 66.4408757,12.9346232 66.2068757,13.0162973" id="Fill-37"></path>
                <path d="M30.0721045,97.4990363 C30.361101,98.0401542 30.3510063,98.7590748 30.8502608,99 C31.2073244,98.4612914 30.8139199,97.3886926 30.8121894,96.6095406 C30.5707821,96.3662062 30.4978119,96 30.2281395,96 C30.025092,96.3599422 29.9203957,96.9010601 30.0721045,97.4990363" id="Fill-39"></path>
                <path d="M16.812952,100.610721 C12.9497441,103.989589 9.33800448,109.034383 12.059587,114.793253 C12.9791843,116.696567 14.3367044,118.934365 16.6600265,119.695078 C17.4978455,119.791028 18.7658183,119.980633 19.1174651,119.124734 C19.415956,118.886581 19.6621088,119.267702 19.8313899,119.553257 C19.1526298,124.930241 18.2264903,129.929163 17.0541981,135.163561 L12.8107209,139.494277 C11.7786785,139.018354 10.3455134,138.352825 10.2596462,137.163588 L10,137.352429 C10.0130845,137.829117 10.3892648,138.113907 10.6333731,138.494646 C10.2424727,138.352825 10.3078954,138.828749 10.3246599,139.114303 L12.5527103,141.160202 C13.2228837,141.398355 13.0613715,140.732826 13.3815336,140.589858 C13.9143194,140.683514 14.6033017,140.589858 15.0645315,141.017616 C14.3309799,141.351719 13.6011084,141.494305 12.8099031,141.58796 L12.8565168,141.779094 C13.5827083,142.255018 14.2586061,142.732089 15.1307719,142.968331 C17.1731855,143.206484 18.6787244,142.064649 19.5889172,140.779463 L20.6912889,137.352429 C22.1285429,135.306529 23.2783462,133.117662 23.8090875,130.689876 C23.8708301,130.73766 24.0233467,130.73766 24.1251607,130.73766 C24.2690905,127.976919 25.7165668,125.549134 26.0489957,122.93289 C26.8688234,120.648073 27.4106048,118.268071 28.4189315,116.12584 L28.1805477,115.983254 C28.6413685,115.364362 28.9304549,114.46068 29.1197717,113.556233 C28.7529959,113.936972 28.7844806,114.698833 28.2762283,114.698833 L27.8894168,114.364731 L28.0464312,114.174361 L28.2459703,114.364731 C28.4475539,113.936972 28.2856328,113.269914 28.9128725,113.127328 C28.8499032,112.033277 29.6329307,111.271416 29.7466025,110.271785 C30.6911422,109.129568 29.9952086,107.939567 31.3371909,107.178088 C31.8597544,107.654012 32.9842063,107.03512 33.4740585,106.749566 C32.3148507,105.749934 32.6656797,106.988483 32.2788683,106.654381 C31.0153932,106.273642 32.4788163,105.797718 32.2265302,105.17959 C33.5742369,104.443342 34.0281066,102.598898 33.9986664,101.100406 C33.3051862,102.30264 32.6521863,103.535072 31.4475916,104.274379 C31.2746305,103.561067 31.5036098,103.037742 31.6360907,102.323665 C32.0993649,102.134059 32.6108883,101.515167 32.6480974,101.038479 C32.1803254,101.419218 31.385849,101.08588 31.2766749,101.895906 L30.7639249,101.038479 C30.2597615,100.848492 30.1043827,101.466619 29.782585,101.610352 C28.9353616,100.848492 29.4562895,99.8492425 28.5084787,99.0873819 L25.2855951,98.1825531 C21.7634027,97.5158774 18.9081126,98.7544263 16.812952,100.610721 M10.9465841,138.732799 L12.6774223,139.779832 C12.6140441,139.732431 11.6760467,140.064622 10.9465841,138.732799 M15.7437005,137.733168 C15.5306679,138.113907 15.3585246,138.875385 14.692849,139.066519 C14.6953024,138.448009 15.3883736,138.16322 15.7437005,137.733168 M14.1984991,139.970966 C14.1461609,139.542061 15.1986479,139.685412 15.5768727,139.352456 C15.6856378,139.590227 15.5494769,139.875017 15.3425778,140.064622 C14.8220588,140.017985 14.6405109,140.113934 14.1984991,139.970966 M16.3206465,142.206853 C15.5629704,142.445388 15.0076956,142.255018 14.5595503,141.874279 C15.7621006,141.58796 16.3235088,140.541692 17.4291517,140.064622 C17.9353595,139.637246 18.4665097,139.303908 19.0704426,139.066519 C18.782174,140.398724 17.6818467,141.732458 16.3206465,142.206853 M19.6935934,135.972823 C18.8541389,136.495383 19.7492027,137.876136 18.6819956,138.305041 C18.1426675,139.018354 17.2725462,139.209488 16.6125951,139.637246 C17.5710371,137.924302 17.6000684,135.733905 18.5875416,133.925777 C18.7249292,133.449853 19.2368615,132.832107 19.227457,132.164667 L19.4437606,132.213215 C18.7461915,133.117662 19.7475671,134.306898 19.1023361,135.211345 C19.2405415,135.782453 20.0415602,135.306529 19.6935934,135.972823 M30.6890977,103.037742 L30.7009556,103.085143 C30.3501266,102.895538 29.9232437,102.609219 29.9097503,102.134059 C30.3963313,102.03811 30.9810463,102.561435 30.6890977,103.037742 M29.5323433,104.560698 C29.7609137,104.037755 30.0516357,103.561067 29.8291986,102.84699 C30.1681698,102.989193 30.4425361,103.276277 30.7316224,103.418481 C31.3878935,104.656647 29.839012,104.989221 30.4723851,106.130674 C29.5065832,108.653644 27.8935058,110.604358 27.1542297,113.222513 C26.1213695,114.841419 26.5257633,116.506579 25.3342532,117.88695 C25.0447579,119.219154 24.7188713,120.599525 24.2678639,121.884711 L24.8174142,122.26545 C25.3412043,121.695106 25.5681392,120.742493 25.4458806,120.029181 L27.5447212,115.142264 C27.1333763,116.245108 27.0646825,117.417524 26.3777446,118.410657 C26.4685185,119.838047 25.6605487,121.123232 25.5431968,122.313998 C25.2794617,124.168763 24.3054819,126.025822 24.071187,127.786932 C22.9246549,129.357289 22.7889029,131.737291 21.5933038,133.307267 C21.1983145,131.260985 22.1571654,129.547659 22.079476,127.548396 C22.6801377,123.3121 24.621964,119.362123 25.2001367,115.031024 C26.3200908,111.461021 27.2049323,107.558828 29.5323433,104.560698 M24.8660723,111.59558 C24.8660723,111.582965 24.8668901,111.569585 24.8668901,111.556971 L24.9167748,111.556971 C24.8975569,111.567292 24.8844724,111.584876 24.8660723,111.59558 M27.6281351,102.799588 L27.7095045,103.133691 L27.074087,103.037742 C26.9820864,102.657385 27.4469961,102.895538 27.6281351,102.799588 M24.2838106,100.562173 L24.1787255,100.753689 C24.7568982,101.038479 25.1433008,101.372199 25.4740941,101.895906 L25.4855431,101.942925 C23.6267218,106.035489 22.0986939,110.223619 20.7963741,114.507699 C19.4850587,115.602515 18.35202,117.649179 15.9673642,116.840682 C14.2864108,115.792885 13.6599888,113.841788 13.545908,112.318831 C13.1018518,110.700308 13.994871,109.55809 13.9940533,108.081388 C15.058807,106.179222 15.8377455,104.560698 17.4401917,102.989193 C18.3135842,102.180696 20.1764944,102.514799 20.4058826,100.943294 C20.2693128,100.800326 20.0705915,100.610721 20.0521913,100.324402 C21.1999501,100.229982 22.200099,99.9436627 23.1254207,99.5629236 C24.0131244,99.2303502 24.0679159,100.087013 24.2838106,100.562173" id="Fill-41"></path>
                <path d="M31.4225,96.4375 C31.4225,96.4435 31.4245,96.4505 31.4245,96.4565 C31.4805,96.4905 31.5175,96.5315 31.5775,96.5625 L31.4225,96.4375 Z" id="Fill-43"></path>
                <path d="M34.4245287,101.294 C34.4295287,101.427 34.4205287,101.57 34.4245287,101.706 C34.4755287,101.611 34.5265287,101.515 34.5765287,101.421 L34.4245287,101.294 Z" id="Fill-45"></path>
                <path d="M23.3030545,147 C22.9643365,147.180424 22.9423364,147.817385 23.0772425,148.455077 C23.2457713,149.363039 23.635131,149.182615 24,150 L23.8837732,147.906501 C23.7343388,147.545654 23.4690927,147.089116 23.3030545,147" id="Fill-47"></path>
                <path d="M41.6530657,119.847452 C44.4388383,120.604951 45.6258266,118.383143 46.8739098,116.666199 C46.9326245,116.262308 46.6934019,115.403836 47.1194799,115.101728 C47.6379938,113.434663 47.4745449,111.365328 47.1635159,109.295587 C47.7704986,108.688939 48.2064946,107.98294 47.8986393,106.820739 C47.2753911,106.012956 46.5977922,105.40793 45.7662657,105.004039 C44.3805204,104.548647 42.6036084,103.438351 41.3737743,104.347512 C39.1703877,105.103795 38.5007232,107.427387 37.5759673,109.497127 C36.8059324,111.365328 36.7630866,113.838554 37.7215638,116.160524 C38.1988187,118.080224 40.2768417,118.98898 41.6530657,119.847452 M42.0450257,108.331276 C42.4758644,108.331276 43.6826887,108.185697 44.1690682,108.176776 C44.1738289,110.175551 44.4432022,112.554293 43.9480948,114.312599 C43.7854393,114.255827 43.6192134,114.231902 43.4137121,113.992243 C43.4779808,114.670262 42.5532249,114.566856 42.8888506,115.472367 C42.9634341,115.668636 43.0979224,115.806511 43.2371714,115.919649 C43.0368274,116.1735 42.798795,116.410726 42.5155364,116.606183 C42.0390749,116.454521 41.4654168,116.027921 40.992129,115.675124 C41.040529,112.998736 40.0669764,110.098098 42.0450257,108.331276" id="Fill-49"></path>
                <path d="M45.4480204,120.117291 C45.1795772,120.117291 44.9545269,119.944954 45.0078921,120.230765 C45.1254034,120.67845 45.3121817,121.036859 45.84233,120.996963 C46.0725012,120.793232 45.9528338,120.295842 45.9660403,120.295842 L46,120.295842 C45.7935467,119.758555 45.6825039,120.117291 45.4480204,120.117291" id="Fill-51"></path>
                <path d="M35.3419081,106.709455 C35.4776358,106.756167 35.6198106,107.04218 35.8223841,106.994702 C36.0419237,106.855333 36.0514246,106.487766 35.8868548,106.247699 C34.9683177,105.552768 34.7226506,106.521077 35.3419081,106.709455" id="Fill-53"></path>
                <path d="M35.4235,106.4375 C35.4335,106.4495 35.4375,106.4665 35.4465,106.4795 C35.4905,106.5095 35.5305,106.5295 35.5765,106.5625 L35.4235,106.4375 Z" id="Fill-55"></path>
                <path d="M67.2749782,108.996593 C67.8707877,109.060394 68.0503275,108.214236 67.9884496,107.629038 C67.4985826,106.651092 66.2910253,106.457072 65.5573968,106 C64.7079815,106.130218 65.0501852,107.238382 65.1697222,107.824627 C65.5869294,108.73511 66.7213582,108.865328 67.2749782,108.996593" id="Fill-57"></path>
                <path d="M68.925302,101.116279 C69.3100681,99.4709983 68.1427078,98.1645666 66.928698,96.858912 C65.6232549,95.9873099 64.2118238,94.1970865 62.8030051,95.4067599 C59.673375,97.6807749 56.8531252,100.729245 53.8492625,103.147038 C52.2075689,104.357488 50.2244,106.340451 51.3107765,109.195405 C52.5221739,110.06623 52.0642612,111.372661 52.641597,112.533373 C53.9153184,114.323596 55.7204723,115.147014 57.4647951,116.11382 L57.5368221,116.017061 C58.7023164,116.887886 57.8764314,118.000801 57.9932421,118.967996 C57.0755506,121.58086 55.3547392,123.273547 53.8302295,125.450804 C52.7453458,126.225259 52.4322335,127.773393 51.4395294,128.547459 C51.7593593,129.805706 52.8009521,129.466081 53.5682452,130 C53.6268371,129.418673 53.8828502,128.886308 54.0772859,128.499274 C54.5602028,128.160426 54.8065128,127.580653 55.4719231,127.43571 C56.3687155,126.225259 57.5144303,124.871031 58.8467436,123.951633 C58.9105603,123.178343 59.618515,123.225751 59.79653,122.548443 C60.3275893,122.209983 60.4052143,121.290585 60.6560027,120.951736 L60.624281,120.806793 C60.7631102,119.307233 60.6754089,118.049375 60.5123219,116.453445 C60.291016,114.372558 58.5892377,112.533373 56.7990116,111.566178 C55.7831694,110.742761 54.2959793,110.742761 54.0526549,109.195405 C54.4508561,108.4703 54.7669539,107.356608 55.6484453,106.922167 C55.5913461,105.809252 56.9807586,106.002768 57.4054568,105.179351 C58.6418585,104.889853 59.3867597,103.825123 60.5354601,103.341332 C61.5983251,102.035677 63.960289,102.42271 65.157505,101.309018 C65.9733137,100.147918 67.8624369,102.42271 68.925302,101.116279" id="Fill-59"></path>
                <path d="M63.1310268,132 C63.5020951,132 63.7870756,131.70006 64.609363,132 C65.8361149,131.100181 63.8553521,129.29994 63.0315804,129 C62.9989264,130.199759 60.6626802,131.100181 63.1310268,132" id="Fill-61"></path>
                <path d="M66.8058154,138.914294 C67.5248507,139.106062 67.7336654,138.961274 68.139285,138.626643 C68.1722149,135.605727 69.4746916,133.064615 69.8311099,130.188487 C70.2386666,129.228494 70.3014272,128.030525 70.5927605,126.976574 C71.4334429,125.586067 70.7942143,123.428104 71.5980927,122.084962 C72.8196004,121.941714 74.281303,121.798081 74.9313791,120.839628 C75.298645,121.174644 75.2509934,120.551207 75.6112859,120.64709 C78.5521247,118.105978 80.6150897,114.463165 80.9269557,110.340164 C81.4085079,108.853003 79.3730492,108.182587 78.7958064,107.128635 C77.4514893,106.311891 76.1656714,106.599542 74.9507497,105.497456 C74.521498,104.250967 75.621746,103.580166 76.4232999,102.860075 C77.2798662,102.813096 78.1255849,102.716442 78.7989057,102.285543 C79.0782292,101.182687 78.0461656,100.462596 77.4356055,99.6955261 C76.178456,98.8341126 74.6350095,98.8341126 73.5971348,99.3608956 C73.1752439,101.949372 72.5654586,104.346851 71.6755749,106.79208 L70.7620592,107.222979 C69.9647668,107.319633 69.8125142,108.134067 69.7354193,108.853003 C70.1638962,110.100647 70.6717923,108.517602 71.2071947,109.380556 C71.1138286,110.132608 71.0053534,110.88158 70.8891301,111.628626 C70.6132932,111.250097 70.2065114,111.039075 69.7493661,110.891207 C69.4053449,111.059484 69.9484955,111.947083 69.4495098,111.987901 C69.5680577,111.125717 68.863744,111.322876 68.649893,110.891207 C68.9683451,110.777994 69.1295081,110.536937 69.0109603,110.06753 C68.1377353,110.128757 67.7359898,109.584261 66.7403429,109.793357 C67.7646583,111.082589 69.0059239,112.093797 70.7535361,112.448451 C70.4521302,114.28372 70.1104334,116.113598 69.7884947,117.96196 L69.1240844,118.010865 C67.877395,118.249611 67.3528401,119.545005 67.5519695,120.839628 C67.9936183,121.510429 68.7909107,121.41416 69.4324637,121.893964 C68.566987,126.976574 67.5632044,132.29716 66,137.283115 C66.4215034,137.859573 65.753219,138.529989 66.8058154,138.914294 M72.8296731,113.743075 C73.5076428,112.065686 73.3964557,110.100647 73.8590248,108.326605 C74.1213022,107.990049 74.3587853,107.55915 74.9639217,107.462496 C76.1641217,107.222979 76.8761836,108.229951 78.0341559,108.229951 C80.469423,110.866947 77.8598208,113.168542 77.4197216,115.470137 C76.2443159,117.291544 75.0200963,119.11295 73.0102067,120.023653 C72.7680747,120.023653 72.4035207,120.119922 72.1935438,119.832656 C72.1842459,117.675079 72.8180507,115.805153 72.8296731,113.743075" id="Fill-63"></path>
                <path d="M83,101.279591 C83.0461601,101.423826 83.002451,101.566906 83.189134,101.675659 C84.1176471,102.034515 85.1478758,101.999033 86,101.999033 L85.9501634,101.999033 L85.880719,101.81874 C85.0061275,101.316515 83.7969771,100.597073 83,101.279591" id="Fill-65"></path>
                <path d="M90,128.092823 C90.1225498,128.75632 90.5112973,129.372614 91.1536735,129.894124 C91.5585815,129.942087 91.776747,130.130896 92.2027533,129.846541 L93,129.277829 L91.5689062,127.476529 L91.075116,127.097388 C89.9569056,126.671425 90.526111,127.760885 90,128.092823" id="Fill-67"></path>
                <path d="M99.1715253,104.015912 C98.815584,104.220513 99.0330382,104.752542 99.6441494,104.997538 C100.395516,105.038918 99.6806864,104.548269 99.9476424,104.302945 C99.7508139,104.180118 99.4308203,103.935451 99.1715253,104.015912" id="Fill-69"></path>
                <path d="M86.0230918,108.462705 C85.8935752,108.933192 86.3442169,109.450917 86.4981131,109.919893 C85.6318754,112.554998 86.9217087,115.708585 88.4724798,118.342179 C89.5040417,118.906764 89.713173,120.036311 90.7184506,120.694993 C92.0197118,120.78909 93.536961,122.858856 94.7635596,121.589107 L97.1569508,121.683205 C97.2255184,121.777302 97.4262692,121.824162 97.3637965,121.964741 C97.7912013,121.964741 97.9801432,121.964741 98.1778466,121.589107 C98.5328745,121.683205 99.0741778,121.352919 99.2878803,121.872155 C99.4909166,121.73082 100.050124,121.683205 99.9998408,121.259577 C100.095455,121.259577 100.226876,121.211962 100.237923,121.259577 C100.52324,121.259577 100.351059,120.507554 100.937313,120.78909 C102.518558,122.106076 102.390565,119.472482 103.978287,119.989829 C103.892196,119.613439 103.980953,119.378007 104,119.048099 C103.757347,118.812666 103.477362,118.625227 103.385939,118.436277 C103.102145,118.436277 103.093384,118.812666 102.931107,119.142952 C102.629028,118.86066 103.007293,118.436277 102.912441,118.436277 C100.045172,120.835572 95.8674984,121.024523 91.8117233,120.083171 C90.2963787,119.472482 89.4990896,118.059887 88.6968483,116.836242 C88.0085055,114.861708 87.4767255,112.743949 88.7292275,111.379347 L90.0773432,112.085267 C91.2788004,112.367559 92.794145,112.979382 93.7243792,112.272706 C96.1836714,112.037274 97.8555787,110.014746 99.9647951,109.074527 C99.8150891,107.802511 100.83408,106.861915 99.9526053,105.497313 C98.2818408,103.380688 95.9345424,101.827892 93.4169676,102.015331 C92.6063459,102.204281 92.1248488,103.003543 91.7183951,103.710218 C89.41338,104.416516 88.2481113,106.580379 87.1712186,108.508809 C86.7274337,108.226517 86.3270749,108.132419 86.0230918,108.462705 L86.0230918,108.462705 Z M103.326133,119.001617 C103.667447,119.048099 103.506694,119.378007 103.360416,119.565446 C102.806161,119.424489 103.495647,119.330391 103.326133,119.001617 L103.326133,119.001617 Z M102.779877,119.519342 L103.059862,119.706781 C103.081194,119.800878 102.534557,119.894976 102.497988,119.942213 L102.779877,119.519342 Z M89.4804239,108.650144 L89.6659375,108.838339 L91.6772545,107.473737 C91.785439,105.873703 94.0542656,106.203989 94.606235,104.887003 C95.6362732,104.416516 97.3702723,104.162566 98.435737,105.404728 L98.4822106,105.404728 C97.8277707,108.509943 94.3464399,108.933192 91.9423827,109.827307 C91.2586111,110.156459 90.5085574,109.803499 89.6072741,109.803499 C89.2625313,109.332634 89.6731752,109.074527 89.4804239,108.650144 L89.4804239,108.650144 Z" id="Fill-71"></path>
                <path d="M97.4702496,103 L97.5681161,103 C98.1874272,102.908428 98.0995003,102.317767 97.5658223,102 C96.4250666,102 97.3402708,102.726742 97.4702496,103" id="Fill-73"></path>
                <path d="M116.68345,89.0942873 C116.207971,88.8539644 115.799761,89.0942873 115.917169,89.5745466 C115.480547,91.4028548 114.311905,88.7565989 113.215964,89.3821337 C111.765294,93.8566978 110.089419,98.4742192 109.166038,103.187561 C108.366331,103.957598 109.129687,105.160758 108.526356,105.881727 C108.08472,107.470098 108.023718,109.345157 107.841967,110.933529 C107.017608,112.664472 107.381112,114.782172 106.713436,116.512728 C106.752293,117.523862 106.566781,118.245603 106.234614,119.015254 L106.507033,119.062391 C106.565528,119.303101 106.677085,119.544583 106.491156,119.640789 L106.189908,119.255963 C106.119714,121.516235 105.476272,123.34377 105.289924,125.557677 C105.413181,125.845523 104.921825,125.749317 105.293684,125.989639 C104.571692,126.230349 105.381844,126.568037 105.592843,127 C106.002307,126.759291 106.393804,126.663471 106.922346,126.903794 C106.896023,124.258697 107.016355,121.564917 107.199778,118.918275 C107.277492,117.331449 108.213409,115.840056 108.221347,114.397346 C108.52928,114.588986 108.148646,114.646942 108.374687,114.93672 L108.764095,113.887336 L108.295719,113.887336 L108.200874,113.588672 C108.206306,113.397032 108.395996,113.150913 108.586522,113.29503 L108.66925,113.653582 C109.4301,112.932613 109.190689,111.548246 109.746807,110.634864 C110.745814,108.132338 112.075316,105.925387 112.662771,103.231221 L112.910956,103.184856 C113.252732,104.580042 111.548863,105.688927 112.711238,107.035044 C112.995355,105.015096 113.973053,102.851031 114.009404,100.87822 C113.792138,101.263432 114.028624,102.225883 113.239362,101.985174 C114.369982,97.8965944 116.234294,94.0479515 118,90.008055 C117.633572,89.5745466 116.876901,89.670753 116.68345,89.0942873 L116.68345,89.0942873 Z M113.337132,102.802735 L112.875441,103.044217 L113.167079,102.323248 L113.337132,102.802735 Z" id="Fill-75"></path>
                <path d="M110.973894,135 C111.131215,133.895437 110.538581,132.788973 110.236243,132 C109.925267,132.157795 109.984688,132.788973 110.061123,133.262991 C110.467904,133.420786 110.517116,135 110.966565,134.919518 L110.973894,135 Z" id="Fill-77"></path>
                <path d="M107.110195,129.723844 C107.470728,129.268925 108.400638,128.866263 107.806346,128.311691 L107.785827,128.261054 L106.611166,129.622976 C105.809494,129.219503 105.750871,128.412154 105.969242,128.059318 C105.36982,127.706887 106.32611,127.150289 105.170501,127 C104.651686,127.957639 105.501722,128.917709 105.298006,129.977027 C106.342965,130.077085 106.421373,129.823902 107.110195,129.723844" id="Fill-79"></path>
                <path d="M115.198734,84.8150859 C115.449767,85.1717059 115.517279,86 115.92077,86 L115.961658,86 C116.193673,84.4307766 115.30967,84.0116168 115,83 L115.198734,84.8150859 Z" id="Fill-81"></path>
                <path d="M110.665795,133.957033 C111.074005,134.134672 111.03917,133.719227 110.921417,133.481421 C110.772754,133.363472 110.43078,132.946118 110.077521,133.005808 L110,133.719227 C110.226184,133.89782 110.436667,134.017679 110.665795,133.957033" id="Fill-83"></path>
                <path d="M115.906717,100.036129 C115.317023,99.6873563 115.182452,101.952747 115,103 C115.476291,102.1269 116.272629,101.023619 115.906717,100.036129" id="Fill-85"></path>
                <path d="M115.434925,102 C114.828758,102 115.000992,102.587537 115.103846,102.938551 C115.778786,103.174131 116.553536,102.704856 115.434925,102" id="Fill-87"></path>
                <path d="M3.02352192,79.9473461 C3.85910076,79.7405671 6.1832799,80.3890546 5.98845581,79.582412 C4.74735425,79.0977098 2.76159176,78.405205 3.02352192,79.9473461" id="Fill-89"></path>
                <path d="M2.92456026,51.4306973 L1.55296417,50.028969 C-0.146579805,49.7410111 0.676612378,51.6779029 0,52.3795359 C0.763387622,55.1410869 0.906058632,57.9445436 0.574201954,60.4996414 C0.324039088,60.8710264 0.657459283,61.4077276 0.313876221,61.7368224 C0.50970684,64.5821848 -0.0257980456,67.3441202 0.103583062,70.270603 C0.277915309,71.383989 0.265016287,72.7857173 1.52169381,73.6922657 C1.98879479,73.8983344 2.61811075,73.8983344 2.77485342,73.4873504 C3.02501629,70.394398 4.22267101,67.5920946 5.28390879,64.7463477 C6.45302932,62.7264134 7.00456026,60.2116835 8.8323127,58.6869291 C9.12156352,57.9445436 9.78136808,57.5324062 10.2445603,56.9972428 C10.913355,56.6262423 11.2811726,55.6774037 12.097329,55.7596774 C12.6852117,57.0379952 12.4991531,58.2325015 12.5233876,59.4285456 L12.7586971,59.7165035 C12.2978502,63.7160043 12.2743974,67.7966255 12.8259283,72.0025795 C12.9154397,72.2090326 13.0948534,72.6207855 13.4298371,72.6207855 C13.9293811,71.8784 13.9516612,73.6103765 14.6247557,73.0736752 L15.2337459,71.1775358 C16.0964169,71.4666471 15.3650814,72.2905374 15.7833225,72.8272386 C15.5843648,73.239376 16.0244951,73.6922657 15.7551792,73.9817614 C16.2449511,74.1047875 15.6598046,73.5680863 16.0186319,73.4873504 C14.9499674,69.033422 17.8084691,65.9831442 19.1468404,62.5199602 C19.2113355,62.438071 19.482215,62.5199602 19.3504886,62.3150449 C20.6114658,59.964478 21.852899,57.4939606 23.0419544,55.0203675 C23.4418241,54.9373249 23.6059935,55.4075152 23.9589577,54.7758532 L24,54.7758532 C23.6083388,54.7758532 23.7127036,54.1134347 23.2456026,53.9069816 L22.7562215,54.7093422 C22.1593485,54.6685899 21.7516612,53.8124053 22.2852117,53.4002679 C22.0561564,53.3172253 21.9588274,53.4460182 21.7676873,53.5282919 C21.3302932,53.4460182 21.8169381,53.2011195 21.5054072,53.1196147 C19.7104886,56.787714 17.0681433,60.0455983 15.7203909,63.838646 C15.7039739,64.1266039 15.0949837,64.2104154 15.2216287,64.5818004 L13.9790228,66.6428716 C13.5971336,63.7156199 14.1885342,60.8298895 13.5678176,57.7796117 C12.6570684,57.2852007 13.6244951,56.7500373 13.1171336,56.0076518 C12.6445603,55.5939766 12.3385016,54.8116077 11.6364821,54.8523601 C9.96312704,55.5939766 8.28820847,56.8730634 7.50918567,58.7692027 C7.21641694,58.7692027 6.88065147,58.7692027 6.87361564,59.0982975 C6.99127036,59.4285456 7.16990228,58.9341346 7.25550489,59.3055195 C7.13628664,59.5115882 7.01042345,59.5115882 6.76221498,59.3462719 C6.89355049,59.5527251 6.73368078,60.1286409 6.59452769,60.2524359 L6.29511401,60.0471361 C5.94644951,61.0774795 5.75491857,62.0670705 4.95635179,62.6030028 C4.77185668,62.8909607 4.66983713,62.809456 4.8570684,63.2623457 C4.64403909,63.427662 4.6229316,63.8805517 4.23635179,63.8397993 L4.39035831,63.9639788 L4.01511401,64.3342104 C4.09407166,65.4056906 2.93120521,66.3541448 2.80143322,67.4271628 L2.56885993,67.5086676 C2.2362215,68.2510531 2.01693811,69.1168491 1.5314658,69.7354396 C1.1237785,69.2398751 1.58345277,68.8696435 1.36612378,68.2918054 C2.21276873,65.2415277 1.73394137,61.5319071 2.69667752,58.4397235 C3.46162866,57.5731586 3.48899023,56.4197892 3.47413681,55.2652663 C3.50345277,54.4821285 3.34827362,53.4506317 3.45302932,52.6267415 C3.44052117,52.2138352 3.14579805,51.8428347 2.92456026,51.4306973 L2.92456026,51.4306973 Z M15.4901629,68.2918054 C15.4241042,68.0030786 15.4088599,67.7558731 15.4624104,67.2614621 L16.0624104,67.1376671 C16.1355049,67.6320781 15.6660586,67.9623262 15.4901629,68.2918054 L15.4901629,68.2918054 Z M21.6899023,54.6466758 C22.0057329,55.4709505 20.815114,55.7596774 20.9722476,56.6262423 C20.6669707,57.1195 19.9790228,57.4093801 20.2065147,58.0275862 C19.5091857,58.2747917 19.2469055,59.1405877 18.7942671,59.7165035 C19.7257329,57.9445436 20.5086645,56.2548573 21.6899023,54.6466758 L21.6899023,54.6466758 Z M19.530684,60.0552097 C19.6221498,59.7264994 20.0357003,59.1982562 20.0759609,59.1982562 L20.1170033,59.1982562 C20.2557655,59.1982562 19.7613029,59.6027044 20.16,60.0552097 C19.6092508,59.8499099 19.7609121,60.4838787 19.3614332,60.5673057 C19.4317915,60.6903318 19.5474919,60.6365079 19.6319218,60.6365079 L18.8861238,61.5788107 C18.979544,61.6195631 19.0076873,61.739898 19.0268404,61.8229406 C18.8794788,61.9059832 18.7723779,61.9863346 18.5530945,61.9451978 C18.6656678,61.8452391 18.5945277,61.6687736 18.4913355,61.5815019 C18.5355049,61.5838087 18.5894463,61.5730439 18.6347883,61.5730439 L18.765342,61.4081121 L18.4667101,61.2266486 C19.0932899,61.2266486 18.9592182,60.3024152 19.530684,60.0552097 L19.530684,60.0552097 Z M17.9405863,62.2012458 C18.0035179,62.3561818 17.7811075,62.4015476 17.9085342,62.6030028 L17.6575896,62.6030028 C17.6998046,62.4484513 17.6884691,62.0470787 17.9405863,62.2012458 L17.9405863,62.2012458 Z M17.6462541,63.0974139 C17.9851466,62.9332509 17.8991531,63.4687988 17.9554397,63.7160043 L17.6200651,63.7160043 L17.6462541,63.0974139 Z M16.8375244,66.3133924 L16.4095114,66.643256 L16.9207818,65.4056906 L16.8375244,66.3133924 Z M16.342671,64.1704319 L16.5943974,64.1704319 L16.3242997,64.4583898 L16.342671,64.1704319 Z M14.4625407,67.4679152 C14.5813681,66.3676007 15.3431922,65.7497792 15.9459283,64.9408827 C15.8876873,65.2730531 15.7665147,65.7578527 16.1515309,66.0661868 L15.8442997,66.1903663 C15.8251466,66.1073237 15.8474267,66.0238966 15.7454072,65.9423919 C15.2806515,66.1073237 15.7129642,66.8904616 15.2052117,67.0557778 C15.3474919,67.6728305 14.4,67.9208049 14.9609121,68.5393954 C14.526645,68.2918054 14.2643648,68.7862165 14.2651466,69.1576015 L14.3605212,69.5705077 C13.851987,69.3640546 14.1220847,70.3536456 13.5615635,69.7354396 C13.1444951,68.6624215 14.4586319,68.5393954 14.4625407,67.4679152 L14.4625407,67.4679152 Z M13.6612378,70.3536456 C13.8719218,70.7246461 14.1865798,71.1775358 13.4396091,70.8480566 C13.3461889,70.8065353 13.1601303,70.7246461 13.1628664,70.5585609 C12.9557003,70.0233975 13.5725081,70.5185774 13.6612378,70.3536456 L13.6612378,70.3536456 Z" id="Fill-197"></path>
                <path d="M19.6981204,51.845017 C19.0030687,53.5439352 18.0920598,55.1739302 18,57 C18.4929037,56.0659713 18.9681626,55.033311 19.4426544,54.0133262 L19.3831991,53.9218247 C19.916379,53.539578 19.9033372,52.7822146 20.3678558,52.2728164 C20.6175681,52.1028849 21.0932106,51.6433967 20.9589567,51.6433967 L21,51.6433967 C20.5700038,50.3413812 19.8734177,51.3348265 19.6981204,51.845017" id="Fill-199"></path>
                <path d="M9.99153769,50.2446623 C9.74815945,49.7922336 9.21588934,50.0571471 9.08988841,50.3206534 C9.03479294,50.4715802 8.87094381,50.7734339 9.19864206,51 C9.59772488,50.9627081 10.0691504,50.6605026 9.99153769,50.2446623" id="Fill-201"></path>
                <path d="M22,74.3496869 C21.8675436,74.1773196 21.3316827,73.657392 21.0134061,74.3496869 C20.8815849,74.5664579 21.7608161,74.9132108 21.9469539,75 L22,74.3496869 Z" id="Fill-203"></path>
                <path d="M38.4630333,52 C38.1685943,52 37.9928098,52.4499534 38.0002257,52.951663 C38.1757355,53.600715 38.1556851,54.5500466 38.5989916,55 C38.784664,54.8503264 38.8986493,54.5994716 39,54.2502331 L38.9934081,54.2003419 C38.7385206,53.4011501 39.3070735,52.1492073 38.4630333,52" id="Fill-205"></path>
                <path d="M24.3962494,74.9279458 C25.0811695,75.0936164 25.6428361,75.4645495 26.2900173,75.4645495 C27.0447944,75.381522 27.5831753,76.2068 28.3247037,75.8766119 C28.3752898,73.7328879 28.9012249,71.5899327 29.4460295,69.5296206 C29.9097356,68.5809546 30.5557124,67.674571 30.5942542,66.5613875 C31.1105539,65.6550039 31.3494328,64.6655928 31.8227744,63.7592093 C31.5317035,63.7999542 31.2964378,63.7169267 31.118182,63.5112799 C30.9881033,63.1411156 31.3654919,63.0984487 31.407647,62.7275157 C31.1185834,62.6033588 31.0700047,62.3984808 30.9792708,62.1924495 C31.5521788,60.2551412 32.7855167,59.1000595 33.7679314,57.2465474 C34.0674334,56.8756143 34.451647,56.5042969 34.9823999,56.3805244 C35.2802959,56.5450419 35.3485471,56.8333318 35.4930789,57.0812612 C35.2144537,58.8121539 34.7724273,60.5837917 34.4942036,62.3154533 C33.8907834,64.1305267 33.5330672,66.0670663 33.1299841,68.0032215 C32.6967902,69.982428 32.1411458,72.0012264 32.5920047,74.2687228 C32.920413,74.9279458 33.7434413,75.1343614 34.3396349,75.4645495 C35.3886948,75.7117101 35.9363097,75.2992633 36.8781751,76 C37.082527,75.9588706 37.4073221,75.8766119 37.2198322,75.6286826 L36.8095226,75.7117101 C35.5549063,74.5992953 36.8344141,73.2793118 36.4662596,72.0842539 C36.8906209,70.0646868 37.1206674,68.1273784 37.6417848,66.149325 L38.0934466,65.6957489 C37.8874888,64.4591772 38.6824136,63.6354368 38.3993722,62.4396101 L38.9196866,60.460788 L38.8943936,59.2657301 C38.4965297,57.9465154 38.2355695,56.2978813 36.3899789,55.5971446 C36.0635779,55.3084702 35.5713669,55.5971446 35.2397467,55.1028234 C33.5129934,54.3605729 32.8593885,55.5971446 32.0118702,56.3805244 C31.5670334,56.5042969 31.3996175,57.2465474 30.8375494,56.8756143 C30.8210888,55.3503684 31.2683344,54.1541573 31.548967,52.7938132 C31.1535119,51.8466847 31.5682379,50.6931405 31.7533189,49.6614469 C32.3298401,48.095456 32.9870583,46.3234339 33.7438428,44.7989567 L33.7526752,44.4687686 C34.5251174,44.0974512 33.9923571,42.9431382 34.8061514,42.7367226 C35.5834112,40.388505 37.08333,38.9047728 38.3166679,36.8425388 C39.1521419,36.5546332 40.154229,37.3376287 40.8564126,36.8425388 C41.0892694,36.5546332 40.9913089,36.1425708 40.89375,35.7293552 C39.8394709,34.3709331 37.9689887,34.2879056 36.5236708,34 C33.4355083,38.4096829 31.9540575,43.6023612 30.271868,48.6720359 C28.3576248,54.4013179 26.4000221,60.1317531 25.6934222,66.230815 C25.6970355,66.9730655 26.1077467,67.7979591 25.3152307,68.0866334 C25.5159693,70.023173 24.2561339,71.4254153 24.4560695,73.3619549 C24.6648377,74.0634604 23.3797092,74.2687228 24.3962494,74.9279458" id="Fill-207"></path>
                <path d="M37.1062828,50.7002841 C37.2149584,50.9134339 37.4839838,51.0724268 37.741822,50.9661003 C38.0337545,50.7529505 38.113663,50.3808078 37.7945616,50.0066776 C37.323634,49.9535144 36.7621435,50.2208212 37.1062828,50.7002841" id="Fill-209"></path>
                <path d="M47.8419649,75 L48,74.8852286 C47.7234387,74.578215 47.8095589,74.0395066 47.1800822,74.0014885 C46.6451602,73.9616772 47.4331158,74.7313631 47.8419649,75" id="Fill-211"></path>
                <path d="M49.1655596,71.060623 C49.0514905,71.5088386 48.8720176,71.9546733 49.1392121,72.529675 C49.5418637,72.8493189 49.3530917,74.0618226 49.9113485,73.9975366 L50,72.785033 C49.6999486,72.2100312 49.7839506,70.6778837 49.1655596,71.060623" id="Fill-213"></path>
                <path d="M45.9618746,58.4634153 C45.8720695,59.682623 45.4793839,60.7844227 44.850748,61.8473311 C44.9138658,62.4373058 44.730443,62.9480301 44.4601804,63.6557796 C44.7232417,64.4827715 44.0120021,64.718688 43.765038,65.504954 C44.0052243,66.2534293 43.4604631,66.2534293 43.3579497,66.7259961 C43.2435752,67.158204 43.139791,67.6300369 43,68.1407613 C43.3731996,68.6918446 44.0751198,68.7710949 44.625388,68.9673863 C45.5958763,69.2033028 45.58105,68.1018699 45.8796944,67.5115283 C46.1393668,66.7648875 45.8106461,65.8593791 46.5354413,65.504954 C46.7938428,64.7575793 46.9925154,64.1283464 47.1314592,63.617622 C46.8840715,62.6732223 47.5571863,62.1221389 47.765602,61.5317974 C48.1951416,60.7455313 49.6265166,60.3118559 48.6861045,58.9748735 L48.6755142,58.9359821 C48.3501825,57.8730737 46.2198525,57.7153069 45.9618746,58.4634153" id="Fill-215"></path>
                <path d="M51.3075411,54.4247085 C51.8259753,54.1131107 52.2847335,53.7320896 51.7842022,53.0397937 C51.0404916,52.7979422 50.7029499,51.9667995 49.8316822,52.0010269 C48.9477333,52.1389048 49.5042108,53.0397937 49.1424258,53.4895923 C48.5855753,54.1131107 49.848093,54.0436874 49.7485089,54.7366291 C50.5183277,55.5335444 50.5817333,54.2513116 51.3075411,54.4247085" id="Fill-217"></path>
                <path d="M63.8697867,81 C64.278793,80.1004896 63.6181789,78.3000699 63.3435932,78 C63.3321043,79.1995803 62.5545903,80.1004896 63.3771984,81 C63.4998428,81 63.595201,80.7020284 63.8697867,81" id="Fill-219"></path>
                <path d="M52.2934263,61.167742 C53.4376223,61.9137984 53.0046612,63.0342368 53.5501595,64.0297523 C54.7528748,65.5636351 56.4585289,66.2694687 58.1056637,67.0982914 L58.1723676,67.0147517 C59.2740041,67.7615817 58.4940192,68.7161008 58.6053287,69.54415 C57.7381787,71.78464 56.1127329,73.23653 54.6738942,75.1014778 C53.6487829,75.7663151 53.3520941,77.0925088 52.4145572,77.755799 C52.7169753,78.8348543 53.7007547,78.5451724 54.4246755,79 C54.4811487,78.502629 54.7225921,78.0470279 54.9067438,77.7148027 C55.3630308,77.4251208 55.5942435,76.9273631 56.223224,76.8028269 C57.0711403,75.7663151 58.1519063,74.6056539 59.411504,73.8162805 C59.4716602,73.1529903 60.1399264,73.1939867 60.3068906,72.6146229 C60.8077833,72.3233941 60.8818532,71.5359545 61.1200227,71.2454991 L61.0901492,71.120963 C61.2202831,69.8353789 61.1359825,68.7570972 60.9833412,67.3879733 C60.7746359,65.605405 59.1684237,64.0297523 57.4758649,63.1989958 C56.5174575,62.4950959 55.1142214,62.4950959 54.8821902,61.167742 C55.2590874,60.5458349 55.5578224,59.5920893 56.3893697,59.2192544 C56.3353519,58.2647353 57.6489675,58.4314281 58.0487813,57.7255944 C59.2179401,57.4769089 59.9205812,56.5641597 61.0050302,56.1487815 C62.0084524,55.0302769 64.239962,55.3609551 65.3710628,54.407983 C66.1404078,53.4124675 67.9246333,55.3609551 68.9296924,54.241677 C69.2922667,52.8315568 68.1906302,51.7111184 67.0443881,50.5933874 C65.8101623,49.8465574 64.4769039,48.3111276 63.1465101,49.3491864 C60.1923073,51.297674 57.5278366,53.910612 54.6906724,55.983249 C53.1409334,57.0197608 51.2674966,58.7211099 52.2934263,61.167742" id="Fill-221"></path>
                <path d="M65.2744093,60.9965345 C65.8719057,61.0609108 66.0503928,60.2143018 65.9883577,59.6282345 C65.4975181,58.6510509 64.2927302,58.4561 63.5564709,58 C62.708113,58.1317892 63.0503947,59.2371181 63.1695674,59.8237927 C63.5869443,60.7359927 64.7220787,60.8653526 65.2744093,60.9965345" id="Fill-223"></path>
                <path d="M86.9989232,38.7754878 L86.9717307,38.7003253 C86.5599583,38.55174 86.2397526,38.3279922 86.2519615,38.0290817 C85.4705928,38.177319 83.7369312,37.6560527 84.0338291,38.4765774 L85.2663715,38.9247691 C85.8335297,38.8492585 87.0410994,39.2236795 86.9989232,38.7754878" id="Fill-225"></path>
                <path d="M79.9853238,37.8618274 L80,37.5810902 L79.7470101,37.3698003 C78.9461082,36.949841 76.6293632,36.8086535 77.0507802,37.3698003 C77.804858,38.0023598 79.2228596,38.1432197 79.9853238,37.8618274" id="Fill-227"></path>
                <path d="M87,45.42899 C86.7449004,44.9714362 85.9826456,44.628404 86.0003017,45.7714895 L86.2916267,46 C86.5074568,45.6569678 86.9945205,45.8844131 87,45.42899" id="Fill-229"></path>
                <path d="M67.2848472,74.4807635 C67.0155371,74.6074684 67.0262936,75.0302128 67,75.2848068 C67.4059571,75.7505757 67.3641264,75.2003369 67.7163011,75.2421771 C67.9154949,75.3696715 67.8892013,75.6230813 67.9704724,75.7924159 C68.24536,75.8772806 68.9736127,76.2589742 69.0186305,75.7071565 C68.7895576,75.4549309 68.607096,75.0302128 68.6031121,74.819038 C69.0708193,74.819038 69.2317679,75.3274365 69.6775637,75.4115117 C70.4532246,75.0740267 71.4189164,76.300025 72.1567304,75.7924159 C72.0479706,74.9465323 72.3101097,74.2261695 72.3925759,73.4647559 C72.5037261,72.828863 73.1598706,72.152314 72.7379781,71.4327407 C72.6654715,69.9935939 73.2291901,68.7237818 73.5164276,67.3698944 C75.6549728,67.7511933 75.5948163,70.2892387 76.7796213,71.7299643 C77.2309946,72.9563574 78.4934852,73.8030304 78.5145997,75.2003369 C78.6305306,75.7071565 79.2914558,75.7924159 79.5336755,75.9191208 C80.0320585,76.0462205 80.5304415,75.7924159 80.6698772,75.2848068 C80.7387983,75.0302128 80.7085208,74.5226038 80.3089379,74.2680098 C80.3272638,73.0416168 78.7396888,72.828863 78.7050291,71.5590509 C77.7018888,71.0952556 78.1329443,69.9935939 77.6791807,69.3166502 C78.336122,68.6401012 77.9421166,67.6659339 78.0078506,66.6499263 C79.2504218,64.238191 81.369446,62.6711552 82.7148013,60.3431005 C83.3275216,59.2852526 83.973308,58.1855645 84,56.9994328 C83.482096,56.788258 83.1653778,56.1535492 82.8845144,55.8575097 C82.0674213,55.6455454 81.103323,54.4167841 80.4033558,55.0953067 C79.8870454,58.439369 77.4624578,60.7243994 75.4916339,63.3058639 C75.5019919,63.7305819 74.9665589,63.8142624 74.5857002,63.6453226 C74.0897075,62.9683789 74.5801228,62.5018206 74.5825131,61.9523713 C74.1912964,60.4279651 75.3936305,59.7083917 75.3824756,58.3545044 C75.4649419,57.5923013 75.7278778,57.2532374 75.6203131,56.4073538 C76.1230784,55.4327917 76.3119141,54.2067934 76.8258343,53.2760452 C77.41744,52.1325432 77.6955146,50.7356314 78.4130109,49.761464 C78.6667838,48.4498116 79.8699147,47.7310277 80.6921869,46.8421197 C80.6710724,45.4452079 82.1478956,44.8101045 81.5244188,43.2012284 L82.1251875,43.0326832 C81.88735,42.736249 82.2602409,42.3131099 81.6005109,42.2286399 C80.9013405,41.9740459 81.1244376,42.0158862 80.7810274,42.5677038 C79.3878656,41.3389425 77.5680306,40.6619988 76.1457865,41.1703973 C74.7896747,42.5242847 74.5948631,44.4710406 73.956646,46.1635971 C72.9272122,47.2652589 73.1961239,49.0000504 72.4196663,50.2698626 C72.2463676,51.751639 71.2750984,53.1051317 71.4117454,54.6295378 C70.9619657,56.0260549 70.8842801,57.550461 70.4775262,58.9477675 C70.1026434,62.1627567 69.195913,64.9151347 69.0361595,68.131308 C68.0875984,69.4023043 68.7274091,71.2634061 68.3836005,72.7443931 C68.3672666,73.4229156 67.938203,73.972365 68.2971504,74.6074684 C67.9413901,74.7345681 67.6852268,74.7345681 67.2848472,74.4807635" id="Fill-231"></path>
                <path d="M97.5672599,54 C96.4245396,54 97.3397821,54.7266949 97.4704041,55 L97.5663713,55 C98.1892694,54.9101695 98.0977451,54.3182203 97.5672599,54" id="Fill-233"></path>
                <path d="M91.7642898,55.5381249 C89.8444492,56.1743177 88.8740248,58.1215969 87.9762072,59.8572067 C87.6072764,59.6032824 87.2733591,59.5195624 87.0190511,59.8153467 C86.9117995,60.2386854 87.2866273,60.7054637 87.4152555,61.1276178 C86.6928736,63.5002102 87.767601,66.3368166 89.0612544,68.7078294 C89.9196359,69.2164677 90.0950715,70.2329546 90.9320763,70.824523 C92.0163864,70.9102175 93.2812919,72.7721971 94.303315,71.6309201 L96.2968681,71.7146401 C96.3554695,71.7991499 96.521691,71.8417997 96.4693552,71.9685644 C96.8253863,71.9685644 96.9842366,71.9685644 97.1493525,71.6309201 C97.4434652,71.7146401 97.8945853,71.4180661 98.0722323,71.8848444 C98.2432452,71.7572899 98.7072651,71.7146401 98.6670918,71.3331614 C98.7455955,71.3331614 98.8554271,71.2913014 98.8642726,71.3331614 C99.1012581,71.3331614 98.9578874,70.6562933 99.4466009,70.9102175 C100.765317,72.0949341 100.658065,69.725106 101.981203,70.189515 C101.909702,69.8514758 101.983046,69.6394115 102,69.3428375 C101.796922,69.1307732 101.563622,68.9625435 101.488436,68.793129 C101.25145,68.793129 101.243342,69.1307732 101.108448,69.428532 C100.857457,69.1746077 101.171841,68.793129 101.0926,68.793129 C98.7054222,70.9520775 95.2239834,71.1222818 91.8427936,70.2748145 C90.5812051,69.725106 89.9155817,68.4539051 89.2481155,67.3517238 C88.6738955,65.5750438 88.2312523,63.6696246 89.2739148,62.4402837 L90.3976611,63.0752918 C91.4001503,63.3292161 92.662476,63.881294 93.4371938,63.2454961 C95.4860312,63.0334318 96.8799335,61.2133123 98.6368697,60.3650552 C98.5130328,59.2221986 99.3607259,58.3755211 98.6265499,57.1473649 C97.2352275,55.2423406 95.2788992,53.8451649 93.1817801,54.0137895 C92.505837,54.183204 92.1044728,54.9027219 91.7642898,55.5381249 L91.7642898,55.5381249 Z M101.437205,69.3009775 C101.723578,69.3428375 101.588685,69.6394115 101.466322,69.8080362 C101.004882,69.6816664 101.579839,69.5975516 101.437205,69.3009775 L101.437205,69.3009775 Z M100.982768,69.7661762 L101.2157,69.9355907 C101.233759,70.0208903 100.778585,70.105795 100.747626,70.147655 L100.982768,69.7661762 Z M94.1717383,56.4862931 C95.0301197,56.0629543 96.4745151,56.1920884 97.3620129,56.8409182 L97.400712,56.8409182 C96.8567141,60.085857 93.9553923,60.1281119 91.9515194,60.9329293 C91.3828279,61.2287136 90.7566407,60.9672861 90.0066166,60.9672861 C89.7187695,60.5423678 90.0607952,60.3267493 89.9004706,59.9456655 L90.0552668,60.1356151 L91.7318563,58.83993 C91.8217855,57.4004994 93.7114041,57.6725893 94.1717383,56.4862931 L94.1717383,56.4862931 Z" id="Fill-235"></path>
                <path d="M99.1721577,55.0160196 C98.8156978,55.2207755 99.0319,55.752302 99.6442447,55.9974752 C100.394795,56.0394178 99.6818748,55.5483087 99.9473383,55.3031354 C99.7516616,55.1803581 99.4321477,54.9351848 99.1721577,55.0160196" id="Fill-237"></path>
                <path d="M91,77.0929477 C91.1210014,77.7568541 91.510605,78.3734649 92.1536857,78.8928324 C92.5573713,78.9418961 92.775904,79.1310785 93.2030598,78.8468629 L94,78.2775477 L92.5688456,76.477663 L92.0759736,76.0975301 C90.9541029,75.6709858 91.5257302,76.7618785 91,77.0929477" id="Fill-239"></path>
                <path d="M103.077837,62 C102.518162,62.0731455 102.616527,62.7991826 102.167422,63.016926 C101.746319,63.3437105 102.240657,63.9610452 102.337227,64.3599592 C102.702686,64.7602278 103.196306,64.9664576 103.735519,64.9664576 C104.470743,65.1469509 104.708758,64.566189 104.949645,64.0098089 L104.988775,64.0098089 C105.109039,63.4534287 104.2216,63.1496716 104.295912,62.4957641 C104.126466,61.9512363 103.54884,62.0358955 103.077837,62" id="Fill-241"></path>
                <path d="M99.166088,88.4371497 C98.7374121,88.7303296 98.2995174,88.9820181 98.0317871,89.4446865 C97.8865904,89.9057892 98.268788,90.3261833 98.5718572,90.5778718 C99.153028,90.787286 99.9162707,91.2487802 100.316138,90.8303432 C101.599477,88.2692269 102.077319,85.7922678 103.889973,83.5685628 C106.124004,80.8399152 107.638966,78.0282847 110.053917,75.5513256 C110.892063,74.879243 112.122393,74.6690459 113.141075,74.249826 C113.322763,73.957429 113.390752,73.7045662 113.398818,73.3683292 C113.497536,73.0751493 113.888569,73.536252 113.846316,73.1596978 C113.098438,72.9487179 113.166811,71.7744326 113.06694,71.1446242 C113.931974,70.2208531 114.485104,69.0035107 115.525296,68.1220139 C117.302995,65.5620719 119.076853,63.1688784 121.213702,61.1127049 C122.285392,60.1893252 123.198056,58.9884227 124.421088,58.1906916 C124.620062,57.6027661 125.332601,56.9619977 124.815194,56.3184894 L124.774477,56.3184894 C124.070004,55.6753724 123.076675,55.2945126 122.341089,55.5043182 C121.779124,55.7560067 121.639305,56.3983408 121.738791,57.0277577 C120.930223,58.2032173 119.892335,59.4479597 118.960081,60.6234193 C116.270101,62.9739471 115.164225,66.3241831 112.695882,68.9267907 L112.398958,68.881385 C112.26759,68.2926767 112.141599,67.9145568 112.07169,67.4111798 C111.615357,64.8077893 111.590006,62.2893387 111.351084,60.1071252 C111.619199,58.7214685 112.000244,56.9162006 110.799106,55.4052868 C110.214094,54.8169699 109.721655,54.2713186 109.047912,54.0192387 C108.174043,53.9785302 107.300174,53.935473 106.881869,54.6490471 C105.959986,55.3203469 106.282261,56.5791807 106.68981,57.6700918 C108.056887,61.407059 108.270841,65.1424606 108.883509,69.0035107 C109.072879,70.2208531 109.365961,71.3532556 109.123583,72.4872238 C109.041382,72.4872238 108.895417,72.5717723 108.776724,72.4038495 L108.499007,72.8234608 C109.586445,73.4528777 108.164824,73.9139804 108.250098,74.6690459 C104.930165,78.9935473 101.37131,83.3575829 99.166088,88.4371497" id="Fill-243"></path>
                <path d="M112.026783,57 C111.883135,57.3332297 112.306478,57.8001243 113.559788,58 C113.535467,57.6661486 115.677267,58 114.780417,57.2657756 C114.034815,56.8001243 112.913752,57.1327324 112.026783,57" id="Fill-245"></path>
                <path d="M115.207757,73.0591241 L115.84815,73.8097072 C116.940698,74.4915928 116.937345,73.2639443 117.99828,71.3544102 C118.064858,71.148954 116.175292,70.6038272 116.428192,71.491805 C115.768161,71.8308396 114.501745,72.2398437 115.207757,73.0591241" id="Fill-247"></path>
                <path d="M48,117 C47.9365621,115.386559 45.1166439,116.049203 45,116.745303 C45.9643588,116.397793 47.1517735,116.423694 48,117" id="Fill-249"></path>
                <path d="M8.89000589,72 C7.9782309,72.2249084 8.18291508,72.0178904 7,72 C7.25386155,73.2225135 10.2798203,73.2838522 9.97899662,72.4035288 C9.47747607,72.3842185 8.89532236,72.4307905 8.89000589,72" id="Fill-251"></path>
                <path d="M59.0806417,109.930583 C59.9778526,110.357571 60.4113124,108.658753 59.478449,109.062596 C60.4426759,109.686937 58.6032194,109.1765 59.0806417,109.930583" id="Fill-253"></path>
            </g>
        </g>
    </g>
</svg>